<?xml version="1.0" standalone="no"?>
<!DOCTYPE svg PUBLIC "-//W3C//DTD SVG 20010904//EN"
 "http://www.w3.org/TR/2001/REC-SVG-20010904/DTD/svg10.dtd">
<svg version="1.0" xmlns="http://www.w3.org/2000/svg"
 width="512.000000pt" height="512.000000pt" viewBox="0 0 512.000000 512.000000"
 preserveAspectRatio="xMidYMid meet">
 <defs>
  <linearGradient id="paint0_linear_2230_404" x1="0%" y1="0%" x2="100%" y2="0%"> 
    <!-- x2="100%" y2="0%" define o gradiente da esquerda para a direita -->
    <stop offset="0%" stop-color="#1A4CFC"/>
    <stop offset="100%" stop-color="#33F7EB"/>
  </linearGradient>
</defs>
<g transform="translate(0.000000,512.000000) scale(0.100000,-0.100000)"
fill="url(#paint0_linear_2230_404)" stroke="none">
<path d="M3565 5017 c-10 -8 -64 -92 -120 -188 -58 -100 -107 -173 -114 -171
-7 1 -52 14 -100 28 -128 37 -310 72 -446 85 -228 22 -652 -7 -733 -50 -12 -6
-24 -22 -28 -35 -3 -14 30 -156 85 -362 103 -382 102 -381 181 -370 124 18
273 25 379 16 133 -10 251 -30 251 -42 0 -4 -21 -46 -47 -93 -48 -86 -48 -86
-83 -80 -19 3 -105 8 -190 11 -120 5 -179 3 -260 -10 -539 -85 -967 -497
-1081 -1039 -29 -134 -31 -361 -6 -492 53 -269 176 -505 362 -691 190 -190
409 -308 675 -365 146 -31 371 -31 517 0 170 35 335 104 467 194 l58 39 136
-135 136 -136 -52 -55 c-37 -39 -52 -63 -52 -83 0 -24 63 -91 408 -435 473
-473 459 -463 622 -463 86 0 101 3 160 31 157 75 247 242 220 409 -20 124 -32
138 -453 562 -215 215 -402 397 -417 403 -35 15 -69 -1 -125 -59 l-39 -41
-137 136 -136 136 44 66 c96 142 166 324 199 512 20 116 14 365 -11 480 -36
165 -105 326 -201 471 -63 96 -248 280 -344 343 -41 27 -76 50 -78 51 -1 1
153 270 342 598 189 328 347 605 351 615 12 41 -15 68 -151 145 -73 43 -142
77 -152 77 -10 0 -26 -6 -37 -13z m123 -187 c48 -28 51 -32 41 -53 -10 -18
-732 -1270 -870 -1509 l-39 -67 -36 24 c-20 13 -44 27 -55 30 -14 5 -18 12
-14 23 10 27 910 1582 915 1582 3 0 29 -14 58 -30z m-753 -219 c115 -20 296
-65 322 -80 17 -9 -247 -467 -268 -464 -8 0 -68 11 -134 23 -127 23 -375 31
-485 17 l-56 -8 -63 238 c-35 131 -66 246 -68 255 -4 12 3 18 29 23 166 31
536 29 723 -4z m-200 -993 c4 -4 -34 -79 -84 -166 l-92 -159 -55 -6 c-119 -12
-253 -106 -307 -213 -72 -144 -57 -316 39 -442 14 -18 24 -35 23 -36 -2 -1
-30 -13 -63 -26 -117 -47 -226 -150 -281 -267 -47 -97 -55 -165 -55 -454 0
-254 1 -267 21 -293 l20 -26 659 0 659 0 21 27 c21 27 21 33 18 323 -3 289 -4
296 -30 367 -52 143 -165 264 -298 320 -36 15 -67 28 -69 29 -1 2 9 18 23 36
14 19 38 61 53 93 25 53 28 71 28 160 -1 83 -5 109 -24 152 l-23 53 108 190
c60 104 112 190 115 190 19 0 145 -95 217 -165 106 -100 169 -185 231 -305 91
-178 131 -342 131 -539 0 -313 -115 -598 -329 -819 -350 -360 -889 -460 -1337
-248 -651 308 -880 1103 -492 1703 143 220 368 395 616 477 128 43 221 56 389
53 89 -1 164 -5 168 -9z m-57 -494 c133 -66 190 -231 124 -360 -43 -85 -152
-154 -242 -154 -56 0 -132 31 -177 73 -57 52 -84 105 -90 177 -15 158 107 290
267 290 51 0 78 -6 118 -26z m153 -670 c140 -41 247 -157 278 -302 6 -30 11
-147 11 -267 l0 -215 -60 0 -60 0 0 200 c0 200 0 201 -25 225 -30 30 -54 31
-89 4 l-26 -20 0 -205 0 -204 -300 0 -300 0 0 204 0 205 -26 20 c-35 27 -59
26 -89 -4 -25 -24 -25 -25 -25 -225 l0 -200 -60 0 -60 0 0 215 c0 120 5 237
11 267 30 142 132 256 268 299 78 25 469 27 552 3z m814 -1024 l129 -130 -34
-35 -34 -35 -133 132 -133 132 32 33 c18 18 34 33 38 33 3 0 64 -58 135 -130z
m1107 -850 c33 -67 30 -150 -7 -219 -61 -111 -177 -156 -301 -115 -44 15 -90
57 -414 380 l-365 364 175 175 175 175 358 -357 c249 -250 364 -371 379 -403z"/>
<path d="M1670 4609 c-418 -168 -775 -446 -1049 -817 -66 -91 -79 -122 -63
-156 6 -14 112 -81 298 -188 159 -91 300 -171 312 -178 40 -20 67 -4 127 77
158 212 423 416 660 509 78 30 115 58 115 87 0 25 -169 655 -183 682 -25 49
-63 46 -217 -16z m120 -146 c6 -21 37 -135 69 -253 l57 -215 -115 -57 c-139
-67 -259 -147 -377 -248 -79 -68 -197 -193 -227 -241 -6 -10 -16 -19 -21 -19
-11 0 -444 249 -450 259 -9 13 174 229 275 325 172 164 357 293 564 395 91 45
194 90 207 91 4 0 12 -17 18 -37z"/>
<path d="M3793 4378 c-29 -31 -353 -593 -355 -615 -3 -41 5 -53 75 -106 336
-252 560 -630 617 -1037 20 -141 19 -139 50 -155 24 -12 86 -15 364 -15 194 0
346 4 360 10 44 16 51 46 37 173 -37 344 -157 704 -332 994 -166 275 -439 563
-699 738 -61 41 -88 44 -117 13z m318 -356 c287 -270 509 -639 619 -1027 33
-116 70 -314 70 -371 l0 -34 -260 0 c-200 0 -261 3 -264 13 -2 6 -13 64 -25
127 -57 299 -199 581 -409 815 -50 55 -124 127 -165 160 -42 33 -76 63 -76 67
-1 3 58 108 130 232 l131 226 79 -61 c44 -34 120 -100 170 -147z"/>
<path d="M447 3489 c-38 -22 -146 -280 -197 -472 -35 -131 -66 -307 -75 -427
-7 -76 -5 -88 13 -110 l20 -25 348 -3 c241 -2 356 1 375 8 34 14 44 41 59 153
15 121 53 262 100 376 45 106 47 120 23 149 -24 28 -606 362 -629 362 -11 0
-27 -5 -37 -11z m302 -293 c178 -102 221 -132 216 -145 -54 -131 -89 -255
-109 -381 l-12 -75 -262 -3 -262 -2 0 32 c0 50 28 212 55 319 41 161 127 394
144 387 4 -2 107 -61 230 -132z"/>
</g>
</svg>
