<?xml version="1.0" standalone="no"?>
<!DOCTYPE svg PUBLIC "-//W3C//DTD SVG 20010904//EN"
 "http://www.w3.org/TR/2001/REC-SVG-20010904/DTD/svg10.dtd">
<svg version="1.0" xmlns="http://www.w3.org/2000/svg"
 width="512.000000pt" height="512.000000pt" viewBox="0 0 512.000000 512.000000"
 preserveAspectRatio="xMidYMid meet">
 <defs>
  <linearGradient id="paint0_linear_2230_404" x1="0%" y1="0%" x2="100%" y2="0%"> 
    <!-- x2="100%" y2="0%" define o gradiente da esquerda para a direita -->
    <stop offset="0%" stop-color="#1A4CFC"/>
    <stop offset="100%" stop-color="#33F7EB"/>
  </linearGradient>
</defs>
<g transform="translate(0.000000,512.000000) scale(0.100000,-0.100000)"
fill="url(#paint0_linear_2230_404)" stroke="none">
<path d="M1118 4230 c-141 -23 -289 -79 -395 -151 -69 -47 -178 -154 -229
-225 -57 -80 -119 -210 -145 -309 -32 -118 -32 -336 0 -455 109 -408 473 -690
891 -690 427 0 789 287 896 710 27 108 25 324 -5 435 -26 98 -87 229 -145 309
-51 71 -160 178 -229 225 -75 51 -206 109 -298 131 -98 23 -259 33 -341 20z
m320 -180 c251 -70 438 -249 522 -498 162 -485 -206 -992 -720 -992 -341 0
-637 225 -732 557 -29 102 -31 295 -4 392 78 286 309 499 601 557 90 18 237
11 333 -16z"/>
<path d="M1186 3887 l-26 -26 0 -286 0 -286 25 -24 c24 -25 24 -25 240 -25
216 0 216 0 240 25 30 29 32 74 6 106 -19 23 -25 24 -185 27 l-166 3 0 229 c0
256 -2 265 -72 276 -30 5 -41 2 -62 -19z"/>
<path d="M2310 3090 c-21 -21 -26 -69 -10 -100 5 -10 24 -23 41 -29 23 -8 298
-11 921 -11 980 0 927 3 996 -63 19 -18 43 -50 55 -72 22 -40 22 -43 25 -794
3 -857 5 -828 -73 -906 -44 -44 -116 -75 -175 -75 -56 0 -90 -77 -55 -127 20
-29 62 -36 131 -24 80 15 140 46 203 105 91 87 131 194 131 356 l0 77 63 5
c104 9 175 58 216 148 20 43 21 64 20 415 0 283 -3 379 -13 408 -35 97 -121
157 -226 157 l-60 0 0 84 c0 110 -13 177 -50 253 -36 73 -110 144 -190 182
l-55 26 -937 3 c-929 2 -938 2 -958 -18z m2309 -716 c20 -26 21 -38 21 -370 0
-230 -4 -351 -11 -367 -14 -30 -48 -47 -94 -47 l-35 0 0 405 0 405 49 0 c42 0
53 -4 70 -26z"/>
<path d="M2171 2764 c-27 -35 -26 -67 3 -100 20 -24 32 -28 90 -32 l66 -4 0
-634 0 -634 -342 2 -343 3 -5 443 c-5 425 -6 444 -24 458 -21 15 -63 18 -91 8
-43 -17 -45 -41 -45 -489 l0 -425 -340 0 -340 0 0 475 0 476 -25 24 c-32 33
-78 33 -110 0 l-25 -24 0 -520 c0 -360 3 -528 11 -544 6 -14 22 -30 36 -36 17
-8 500 -11 1728 -11 l1704 0 28 24 28 24 0 752 0 752 -24 19 c-22 18 -53 19
-991 19 l-969 0 -20 -26z m999 -769 l0 -635 -340 0 -340 0 0 635 0 635 340 0
340 0 0 -635z m850 0 l0 -635 -345 0 -345 0 0 635 0 635 345 0 345 0 0 -635z"/>
<path d="M358 2584 c-15 -8 -30 -25 -33 -37 -3 -12 -4 -323 -3 -692 l3 -670
31 -65 c40 -82 87 -136 155 -177 112 -67 12 -63 1730 -63 1537 0 1557 0 1582
20 33 26 41 63 22 100 -9 17 -17 31 -18 32 -1 2 -715 5 -1587 8 l-1585 5 -40
22 c-52 28 -89 68 -114 123 -20 44 -21 63 -21 700 -1 692 1 673 -47 698 -28
15 -42 15 -75 -4z"/>
</g>
</svg>
