<svg width="141" height="166" viewBox="0 0 141 166" fill="none" xmlns="http://www.w3.org/2000/svg">
  <path d="M78.0092 0.521264C76.4302 1.2296 73.3074 3.06293 71.5179 4.3546C70.746 4.89626 69.8337 5.3546 69.5179 5.3546C69.2021 5.3546 68.7811 5.6046 68.6407 5.93793C68.3951 6.43793 65.4127 8.27126 64.8162 8.27126C64.7109 8.27126 63.6232 8.81293 62.4302 9.4796C61.2723 10.1463 59.0969 11.1046 57.6583 11.6046C56.2197 12.1046 54.5004 12.6879 53.8688 12.9379C53.2372 13.1463 49.8688 13.3546 46.3249 13.3546H39.939L37.132 12.0213C31.6934 9.43793 30.8162 9.1046 29.6583 9.1046C26.3951 9.1046 22.5706 13.8963 22.5706 18.0213C22.5706 19.7296 22.746 20.1046 24.4302 22.1463C26.2548 24.3963 29.939 26.6046 31.7986 26.6046C32.2197 26.6046 32.8863 26.8546 33.2723 27.1879C33.6583 27.4796 34.6056 27.8546 35.3776 27.9796C36.1495 28.1463 37.9741 28.5213 39.4127 28.8963C44.1144 30.0213 53.5881 29.5629 55.9039 28.0629C56.3951 27.7713 57.7986 27.1046 59.0618 26.6463C61.9741 25.5213 67.6934 22.5213 68.9916 21.4796C69.7986 20.8546 70.2197 20.7296 71.0969 21.0629C72.1846 21.3963 72.2197 21.5213 72.4653 24.1879C72.5706 25.7296 72.746 28.5213 72.8513 30.4379C73.132 35.4379 75.0267 46.1879 75.939 47.6463C76.0442 47.8546 76.6758 49.5629 77.2723 51.3963C77.9039 53.1879 78.5355 54.8963 78.7109 55.1463C78.8513 55.3546 79.5881 56.8546 80.2899 58.4796C82.36 63.2296 85.6934 68.4796 87.9741 70.5629C90.2548 72.6463 90.0793 72.5629 91.5881 72.0629C93.132 71.5213 94.9916 69.6879 96.4653 67.3129C97.4478 65.6879 97.6583 64.9796 97.6583 63.2296C97.6583 61.3963 97.4478 60.6879 96.0092 58.1463C95.0618 56.4796 94.0442 54.8963 93.7285 54.6046C93.3776 54.3129 93.0969 53.8546 93.0969 53.6463C93.0969 53.4379 92.746 52.8129 92.36 52.3129C91.2021 50.9379 88.8863 46.5629 88.6407 45.3546C88.5004 44.7713 88.0442 43.3129 87.5881 42.1463C85.9741 37.6879 84.3249 22.0629 84.3249 10.8546C84.3249 5.02126 84.0442 3.8546 82.0793 1.4796C80.6407 -0.18707 79.939 -0.353737 78.0092 0.521264ZM81.2372 11.8129C81.167 17.5213 81.2723 22.5629 81.5179 24.3129C81.7285 25.8963 82.0442 28.8963 82.1846 30.9796C82.36 33.0213 82.6407 35.2713 82.8863 35.8963C83.0969 36.5629 83.2723 37.8546 83.2723 38.8546C83.2723 39.8129 83.5179 40.9796 83.7986 41.4379C84.0793 41.8546 84.3249 42.7296 84.3249 43.3129C84.3249 43.8963 84.5706 44.7296 84.8513 45.1879C85.132 45.6046 85.3776 46.3963 85.3776 46.8963C85.3776 47.3963 85.553 47.9379 85.7635 48.0629C85.939 48.2296 86.2548 48.7713 86.4653 49.2296C87.3074 51.6046 90.36 56.3546 92.9214 59.3129C94.0793 60.6879 95.167 62.1046 95.2723 62.4796C95.3776 62.8546 94.9916 63.8546 94.2899 64.9796C93.6232 65.9796 92.746 67.6046 92.3249 68.5629C91.9039 69.5629 91.4828 70.3546 91.3425 70.3546C91.0267 70.3546 89.8337 68.6463 88.3249 66.1046C87.5881 64.8963 86.9214 63.8129 86.7811 63.6879C86.6758 63.5629 86.4302 63.1879 86.2899 62.8546C85.7986 61.6046 85.0969 60.2296 84.7811 59.9796C84.6407 59.8546 84.1495 58.8963 83.6934 57.8546C83.2372 56.8129 82.5004 55.1463 82.0442 54.1046C81.6232 53.0629 81.132 51.9379 81.0267 51.6046C80.9214 51.2713 80.6758 50.6879 80.5004 50.3546C78.9565 47.4379 77.4127 41.9379 76.9565 37.7296C76.7811 36.1463 76.4653 34.2713 76.2548 33.5213C76.0442 32.6879 75.8688 28.1046 75.8337 22.2713C75.8337 16.8546 75.6583 12.3129 75.5179 12.1879C75.3425 12.1046 74.6407 12.6046 73.9039 13.3546C72.3951 14.8963 71.9039 15.3129 69.4127 16.8129C68.4653 17.3963 67.4127 18.0213 67.132 18.2296C65.4477 19.3546 59.8688 22.4379 59.4477 22.4379C59.2021 22.4379 58.5706 22.6879 58.0793 23.0213C54.4653 25.1879 49.4477 25.9796 42.9214 25.3546C40.1144 25.1046 37.2723 24.6463 36.6056 24.3129C35.3425 23.7713 32.9214 22.9796 31.3425 22.6046C30.4653 22.3546 28.9214 21.6046 27.0618 20.4796C26.5706 20.1879 25.7285 19.9379 25.2372 19.9379C23.9039 19.9379 24.0793 18.9796 25.9039 16.1046C26.7811 14.7296 27.4828 13.3546 27.4828 13.0213C27.4828 11.9796 29.2021 11.8546 30.2899 12.8129C30.8513 13.2713 31.4477 13.6879 31.6232 13.6879C31.7986 13.6879 32.1495 13.9379 32.36 14.2713C32.5706 14.6046 33.2723 14.9379 33.9039 15.0629C35.0267 15.2713 36.5355 15.8129 38.6407 16.8546C40.36 17.7296 52.9916 17.6879 54.746 16.8129C55.4127 16.4796 56.3249 16.1879 56.746 16.1879C57.167 16.1879 57.8337 15.8963 58.2197 15.5629C58.5706 15.2296 59.2723 14.9379 59.6934 14.9379C60.1495 14.9379 60.9565 14.6879 61.4477 14.3963C61.9741 14.0629 62.9565 13.5213 63.6232 13.1879C67.3074 11.3546 70.9565 9.27126 72.9214 7.89626C73.9039 7.18793 75.3776 6.2296 76.2548 5.68793C77.9039 4.7296 78.4302 4.27126 79.5881 2.89626C79.9741 2.43793 80.5355 2.1046 80.8162 2.14626C81.2723 2.2296 81.3425 3.56293 81.2372 11.8129Z" fill="url(#paint0_linear_2230_404)"/>
  <path d="M103.343 7.0213C100.711 9.2713 100.395 10.6046 100.43 19.313C100.465 23.4796 100.606 27.438 100.781 28.1046C100.922 28.7713 100.992 29.563 100.922 29.8546C100.816 30.1463 100.922 30.6046 101.097 30.8963C101.272 31.188 101.834 32.8963 102.325 34.7296C102.816 36.563 103.553 38.8963 103.974 39.938C104.992 42.3546 108.746 49.0213 109.904 50.3963C112.641 53.6046 117.167 59.7296 117.448 60.563C117.904 61.938 117.167 62.8546 115.694 62.8546C114.886 62.8546 114.395 63.1046 114.15 63.688C113.939 64.1463 113.343 64.6463 112.816 64.7713C110.922 65.313 102.325 70.6046 99.9391 72.7296C98.0093 74.3963 92.0093 80.8963 90.1847 83.2296C90.0093 83.438 89.3426 84.2713 88.676 85.1046C88.0093 85.938 87.483 86.813 87.483 87.0213C87.483 87.2296 86.9567 88.0213 86.3602 88.813C85.7286 89.6046 84.6058 91.688 83.8339 93.438C82.1146 97.4796 82.2198 98.8963 84.3953 101.48C85.5882 102.855 86.3953 103.396 88.1496 103.938C91.5532 104.938 92.5005 104.563 95.3075 101.105C96.6409 99.4796 97.7637 97.813 97.8339 97.438C97.9391 96.7713 98.676 95.438 100.641 92.188C101.834 90.2713 105.658 86.1046 107.483 84.7296C108.15 84.2296 109.834 83.1046 111.167 82.2296C112.536 81.3963 113.799 80.5213 113.974 80.3546C114.185 80.188 116.29 78.938 118.711 77.6463C122.851 75.3963 124.886 74.4796 130.29 72.313C133.448 71.063 134.922 70.0213 136.395 67.8963C138.501 64.938 137.834 63.4796 130.571 55.313C127.834 52.2296 125.413 49.438 125.167 49.1046C124.922 48.7713 123.834 47.188 122.746 45.6463C118.922 40.188 116.886 36.0213 115.378 30.563C114.641 27.8546 114.536 26.813 114.36 18.8963C114.29 15.2296 114.044 11.7713 113.869 11.188C113.658 10.6046 112.992 9.5213 112.325 8.72963C109.694 5.56296 105.869 4.81296 103.343 7.0213ZM106.606 9.10463C107.378 9.56297 108.641 9.8963 109.448 9.93797C110.22 9.93797 111.027 10.1463 111.272 10.438C111.834 11.1046 111.799 12.4796 111.167 13.438C110.536 14.438 110.43 23.8963 111.027 26.188C111.202 26.9796 111.518 28.4796 111.658 29.5213C112.079 32.188 112.922 34.938 114.465 38.688C117.132 45.2713 124.781 55.3963 132.395 62.438C133.272 63.2296 134.044 63.9796 134.15 64.1046C134.255 64.2296 134.746 64.563 135.308 64.813C136.571 65.4796 136.501 66.1463 135.202 66.4796C134.606 66.6046 134.044 66.8963 133.939 67.063C133.834 67.2713 133.237 67.438 132.641 67.438C132.009 67.4796 131.132 67.7296 130.641 68.063C130.15 68.3963 129.378 68.6463 128.957 68.688C128.501 68.688 127.694 68.938 127.202 69.2296C126.676 69.563 125.729 70.1046 125.097 70.4796C124.43 70.8546 123.588 71.188 123.202 71.188C122.816 71.188 122.079 71.438 121.588 71.7296C120.606 72.3546 118.571 73.438 117.658 73.8546C117.378 73.9796 116.886 74.2713 116.606 74.4796C116.079 74.813 111.974 77.1463 110.992 77.6046C110.711 77.7296 110.009 78.2296 109.413 78.688C108.851 79.1463 108.044 79.688 107.658 79.938C105.343 81.313 103.027 83.4796 100.079 87.0213C97.6935 89.8963 94.8514 94.6046 94.8514 95.688C94.8514 95.938 94.711 96.188 94.5707 96.2713C94.1847 96.438 92.7461 99.8546 92.7461 100.563C92.7461 101.313 90.29 101.438 89.6935 100.73C89.483 100.48 88.3602 100.146 87.2374 99.9796C85.3426 99.7296 85.2023 99.6463 85.097 98.6046C84.9917 97.6046 86.0795 95.3546 87.904 92.8546C88.1496 92.5213 89.1321 91.0213 90.0795 89.5213C93.3075 84.5213 100.992 75.938 103.694 74.3546C104.711 73.7296 106.044 72.8546 106.606 72.438C107.202 71.9796 107.904 71.5213 108.185 71.3546C109.202 70.8963 111.167 69.8546 111.694 69.4796C111.974 69.2713 112.465 68.9796 112.746 68.8546C113.588 68.4796 115.658 67.3963 116.711 66.7713C117.272 66.438 117.974 66.188 118.325 66.188C118.641 66.188 119.202 65.938 119.588 65.6046C119.974 65.313 120.851 64.938 121.518 64.8546C122.185 64.7296 123.308 64.3963 123.974 64.1046C124.641 63.813 125.413 63.4796 125.694 63.3963C126.079 63.2713 126.044 63.063 125.518 62.3963C125.132 61.8963 124.606 61.3963 124.29 61.2296C123.167 60.7296 114.886 51.5213 112.606 48.2713C111.343 46.438 108.851 42.4796 108.29 41.3963C107.272 39.3963 105.588 35.0213 105.343 33.688C105.202 32.8963 104.922 31.6463 104.746 30.9796C104.22 29.1463 103.553 23.9796 103.343 20.2296C103.202 17.2296 103.764 9.43797 104.185 8.6463C104.465 8.10463 105.062 8.22963 106.606 9.10463Z" fill="url(#paint0_linear_2230_404)"/>
  <path d="M10.9566 41.5629C9.20219 43.6463 9.13202 44.5213 10.1145 51.8129C11.6934 63.3546 12.1145 72.0213 11.3776 78.1046C10.7461 83.2713 7.65833 90.5213 3.55307 96.5629C2.39517 98.2296 1.09693 100.563 0.640788 101.73C-0.131142 103.73 -0.166229 103.896 0.324999 105.313C0.640788 106.146 0.991665 107.188 1.1671 107.646C1.30745 108.146 2.11447 109.23 2.92149 110.105C6.39517 113.813 8.25482 113.563 12.3601 108.688C15.3075 105.188 16.1145 103.98 18.1496 99.9796C19.8689 96.5629 21.518 92.3546 22.8162 88.0629C23.7636 84.8129 23.7987 84.5213 23.7987 75.9796C23.7636 71.0213 23.5882 65.8963 23.3425 64.1879C22.9917 61.6879 22.9917 60.9379 23.3776 60.0213C23.7636 59.0213 24.0092 58.8963 25.3425 58.9796C26.1496 59.0213 28.3952 59.6463 30.2899 60.3129C35.3425 62.1879 42.5706 63.3963 47.132 63.0629C52.6408 62.7296 59.3075 61.6879 61.6934 60.8129C62.8513 60.3963 64.5004 59.8129 65.3776 59.4796C68.3601 58.4796 71.6934 54.7713 71.6934 52.4796C71.6934 51.4796 70.5706 48.6046 69.5531 47.1046C69.2373 46.5629 68.0443 45.4379 66.9215 44.5213C64.6408 42.6879 63.7285 42.6879 60.6408 44.3963C59.6934 44.8963 58.6057 45.3546 58.2197 45.3546C57.8689 45.3546 56.1496 45.9379 54.3952 46.6463C51.5531 47.8129 50.7811 47.9379 47.3425 47.9379C41.7987 47.8546 38.9917 47.5213 35.2022 46.3963C33.3776 45.8546 30.9215 45.1879 29.7636 44.8963C27.1671 44.2713 19.3776 41.5213 17.518 40.6046C16.7811 40.2296 15.3075 39.9379 14.2548 39.9379C12.4653 39.9379 12.2197 40.0629 10.9566 41.5629ZM13.6934 42.8546C14.1846 43.3129 14.8513 43.6879 15.1671 43.6879C15.4829 43.6879 16.0443 43.9796 16.3952 44.3129C16.7811 44.6463 17.518 44.9379 18.0092 44.9379C18.5004 44.9379 19.2373 45.2296 19.6232 45.5629C19.9741 45.8963 20.6759 46.1879 21.1671 46.1879C21.6934 46.1879 22.2548 46.3963 22.4653 46.6463C22.8513 47.1046 23.4478 47.3129 27.4829 48.3129C28.5355 48.5629 30.0092 49.0629 30.7461 49.3546C31.4478 49.6879 32.711 49.9379 33.4829 49.9379C34.2548 49.9379 35.2373 50.1463 35.6583 50.4379C36.6408 51.0629 39.0618 51.4796 45.0969 52.0213C49.2022 52.3963 50.0794 52.3546 51.2022 51.8129C51.9039 51.4796 52.8864 51.1879 53.4127 51.1879C53.9039 51.1463 54.711 50.8963 55.2022 50.5629C55.6934 50.2296 56.5355 49.9796 57.0618 49.9379C57.6232 49.9379 58.5004 49.6879 58.9917 49.3546C59.518 49.0629 60.7461 48.3546 61.6934 47.8546C62.6759 47.3129 63.7285 46.6046 64.0794 46.2713C64.8162 45.5213 64.9215 45.6463 68.0794 50.3963C69.4829 52.4796 69.7987 53.2713 69.518 53.6046C69.2724 53.8963 68.8864 54.1046 68.6408 54.1046C68.3952 54.1046 67.9039 54.2713 67.5531 54.4796C66.5004 55.1046 64.5706 55.8546 62.9215 56.2296C62.0794 56.4379 61.2022 56.8129 61.0268 57.0213C60.8162 57.2713 60.0092 57.4379 59.2022 57.4379C58.3952 57.4379 57.0618 57.7296 56.2197 58.1046C55.0268 58.6046 52.9215 58.7713 46.6057 58.8129C38.2899 58.8963 36.7811 58.6879 31.6934 56.7713C30.8162 56.4379 29.7987 56.1879 29.3776 56.1879C28.9917 56.1879 28.5004 55.9796 28.2548 55.6879C28.0443 55.4379 27.2022 55.1046 26.3601 54.9379C24.5355 54.5629 23.0268 53.9379 20.4653 52.4796C19.4127 51.8963 18.4303 51.3546 18.2899 51.2713C17.8338 51.0213 17.9741 53.3546 18.5004 55.3546C19.518 59.1463 19.8689 61.7713 20.7461 72.6463C21.0618 76.0629 20.9917 77.6879 20.4653 81.8129C20.1496 84.5629 19.6583 87.4796 19.4127 88.2713C19.1671 89.0629 18.8864 89.8963 18.8513 90.1463C18.7811 90.3546 18.5706 90.8546 18.3952 91.1879C18.2197 91.5213 17.5882 92.9796 16.9917 94.4379C15.7987 97.3129 14.4653 99.8963 13.7285 100.813C13.4829 101.146 12.8162 102.188 12.2899 103.105C11.7636 104.063 10.4653 105.896 9.41272 107.188C8.36009 108.48 7.48289 109.73 7.48289 109.938C7.48289 110.73 6.46535 110.313 5.83377 109.271C5.48289 108.688 4.53552 107.355 3.72851 106.271C2.0443 104.063 1.86886 103.105 3.02675 102.396C4.85131 101.271 7.79868 97.3963 9.83377 93.4796C10.8162 91.6046 12.7461 86.7296 12.7461 86.1463C12.7461 85.8129 12.9917 85.1463 13.2724 84.6879C13.5531 84.2713 13.7987 83.4379 13.7987 82.8546C13.7987 82.2713 14.0443 81.3546 14.325 80.7713C15.0618 79.2713 15.0618 62.5629 14.325 58.4796C14.0443 56.8963 13.7987 54.8129 13.7987 53.8963C13.7636 52.9796 13.5531 51.4796 13.2724 50.5629C12.9917 49.6463 12.7461 48.3129 12.7461 47.6463C12.7461 46.9379 12.4303 45.6463 12.0092 44.7713C10.8513 42.1879 11.8338 41.1046 13.6934 42.8546Z" fill="url(#paint0_linear_2230_404)"/>
  <path d="M44.2549 69.7713C43.0619 70.2296 42.1847 70.9796 41.0619 72.4379C39.2023 74.8546 39.0268 76.0213 39.3075 82.7296C39.483 87.6046 38.7812 93.6463 37.8689 94.938C37.6233 95.2713 37.2023 96.4796 36.9917 97.6463C36.7461 98.7713 36.3953 99.938 36.2198 100.188C36.0444 100.438 35.483 101.563 34.9917 102.688C34.5005 103.813 33.7988 105.105 33.4479 105.563C33.097 106.021 32.711 106.813 32.5707 107.355C32.4654 107.855 32.0093 108.771 31.5531 109.438C31.1321 110.063 30.3251 111.48 29.7637 112.646C29.2023 113.771 28.5707 114.896 28.3602 115.146C28.1496 115.355 27.3777 116.646 26.6409 117.938C25.9391 119.271 25.2023 120.355 25.0619 120.355C24.9216 120.355 24.6058 120.771 24.3602 121.271C24.1496 121.813 23.483 122.98 22.8865 123.896C21.5181 126.021 19.7637 130.313 19.7637 131.438C19.7637 132.438 21.5531 134.521 23.3075 135.563C23.904 135.938 26.1496 136.605 28.29 137.021C39.4479 139.23 46.8163 141.771 50.6409 144.771C51.6233 145.563 52.6058 146.188 52.7812 146.188C53.4479 146.188 60.4654 154.355 60.4654 155.146C60.4654 155.396 60.7461 155.771 61.097 156.063C61.483 156.313 62.0795 157.355 62.5005 158.396C63.4128 160.688 66.7461 164.813 68.0444 165.188C69.483 165.605 72.676 164.688 74.2198 163.396C74.9917 162.813 76.0093 161.438 76.5005 160.438L77.4128 158.605L76.7461 156.23C75.7286 152.605 73.3777 148.021 70.3251 143.688C67.7286 140.021 66.6058 138.688 63.2724 135.438C61.9742 134.146 55.904 130.355 55.1321 130.355C54.8865 130.355 53.7286 129.855 52.5707 129.271C51.4128 128.688 49.1321 127.855 47.483 127.438C41.3426 125.855 39.2374 125.105 39.1321 124.355C39.0268 123.73 40.6409 120.063 42.3251 117.146C42.7461 116.438 43.5882 114.855 44.1496 113.688C44.7461 112.521 45.6584 110.73 46.1847 109.73C47.6935 106.938 49.9391 99.3963 50.711 94.563C51.0619 92.1463 51.5531 89.563 51.7286 88.8963C52.2549 86.9796 52.8514 78.7713 52.6409 76.1046C52.4654 73.6463 50.9567 70.3963 49.5882 69.5213C48.676 68.938 46.2549 69.063 44.2549 69.7713ZM49.5882 76.5213C49.5882 79.188 49.4128 82.2296 49.2023 83.2713C48.9917 84.313 48.711 86.3546 48.5356 87.8546C47.9742 92.6463 46.711 99.1463 45.8689 101.396C43.9742 106.563 42.5356 109.688 40.29 113.605C39.3075 115.271 38.3602 117.021 38.1496 117.48C37.9391 117.938 37.4479 118.73 37.097 119.23C36.711 119.73 36.1496 120.688 35.7988 121.313C35.4479 121.98 34.8865 122.813 34.5707 123.23C32.5707 125.646 30.9917 127.896 30.9917 128.271C30.9917 128.521 32.3602 128.688 34.5356 128.688C36.5005 128.688 38.3953 128.896 38.8163 129.188C39.2374 129.438 40.5005 129.771 41.6935 129.98C42.8514 130.146 44.5005 130.521 45.3777 130.771C49.097 131.896 50.8865 132.563 51.7637 133.105C52.2549 133.438 52.9216 133.688 53.2023 133.688C53.5181 133.688 54.1847 133.938 54.7461 134.271C55.2724 134.605 56.4303 135.23 57.3075 135.73C61.097 137.813 65.0268 141.855 68.29 147.021C69.0619 148.271 69.904 149.521 70.0795 149.73C70.5707 150.313 71.2724 151.605 71.6935 152.771C71.8689 153.271 72.1847 153.688 72.3953 153.688C72.5707 153.688 72.7461 153.938 72.7461 154.23C72.7461 154.521 73.3075 155.73 73.9742 156.98C74.6409 158.188 75.2023 159.355 75.2023 159.563C75.2023 159.771 74.711 160.063 74.1496 160.23C73.5531 160.355 72.9917 160.646 72.8865 160.813C72.7812 161.021 72.3251 161.188 71.8689 161.188C71.3777 161.188 70.3602 161.605 69.5531 162.105C68.1145 162.98 68.0795 162.98 67.6233 162.23C67.3426 161.813 67.1321 161.105 67.1321 160.73C67.1321 160.313 66.9917 159.855 66.7812 159.73C66.6058 159.605 66.4303 159.105 66.4303 158.646C66.4303 157.855 65.1321 155.313 64.6058 155.021C64.4303 154.938 64.3251 154.688 64.3251 154.438C64.3251 153.771 62.2549 150.771 60.1496 148.313C57.9391 145.813 52.9567 141.188 52.4654 141.188C52.29 141.188 51.9391 140.896 51.6935 140.563C51.4479 140.23 50.9567 139.938 50.6409 139.938C50.29 139.938 49.5531 139.688 48.9917 139.355C46.3251 137.771 42.4303 136.188 41.1672 136.188C40.8163 136.188 39.9742 135.896 39.3075 135.563C38.6058 135.23 37.4479 134.938 36.7812 134.938C36.0795 134.938 35.2023 134.73 34.8163 134.48C34.4303 134.271 32.9917 133.896 31.5882 133.688C30.1847 133.48 28.29 133.105 27.3075 132.855C26.3602 132.605 24.7812 132.48 23.7988 132.605C22.8514 132.73 21.7988 132.646 21.5181 132.438C20.9567 132.021 20.9917 132.021 23.9742 128.313C25.4479 126.48 28.6409 121.855 29.4128 120.396C29.6233 120.021 30.1847 119.063 30.7461 118.23C31.2724 117.396 31.6935 116.521 31.6935 116.271C31.6935 116.021 31.8338 115.771 31.9742 115.688C32.3251 115.521 35.4128 109.98 35.904 108.646C36.1145 108.105 36.5707 107.063 36.9567 106.396C37.3426 105.688 37.7988 104.771 38.0093 104.313C38.1847 103.855 38.5005 103.188 38.676 102.855C38.8514 102.521 39.097 101.938 39.2023 101.605C39.3075 101.271 39.5531 100.688 39.7286 100.355C41.9742 95.8963 42.9216 87.8546 42.29 79.3129C41.904 74.7296 42.1496 73.6879 43.5882 73.6879C44.1847 73.6879 45.2374 73.3546 45.9742 72.9379C48.1146 71.6879 49.0268 71.2713 49.3426 71.4796C49.483 71.563 49.5882 73.8546 49.5882 76.5213Z" fill="url(#paint0_linear_2230_404)"/>
  <path d="M130.992 97.4379C130.325 97.6046 128.992 97.9796 128.009 98.2296C127.062 98.5213 125.904 98.8129 125.448 98.8963C124.992 98.9796 124.465 99.2296 124.22 99.4379C123.974 99.6463 122.395 100.48 120.641 101.271C118.922 102.105 117.237 102.855 116.957 103.021C116.044 103.48 112.5 106.355 110.641 108.146C109.658 109.105 107.764 111.48 106.395 113.355C105.062 115.271 103.588 117.355 103.097 117.98C102.606 118.605 102.22 119.396 102.22 119.73C102.22 120.063 101.764 120.98 101.167 121.73C100.606 122.521 100.115 123.355 100.115 123.563C100.115 124.021 97.3777 129.105 97.097 129.105C96.5356 129.105 92.8163 124.605 92.5356 123.563C92.4303 123.105 92.0794 122.438 91.7636 122.063C91.4128 121.688 89.7636 119.521 88.0093 117.271C84.9566 113.355 80.4654 108.563 78.6759 107.396C78.2198 107.063 77.3075 106.313 76.6759 105.646C76.0443 105.021 75.2724 104.521 74.9917 104.521C74.6759 104.521 74.0093 104.188 73.518 103.73C72.9917 103.313 71.2373 102.271 69.5882 101.396C67.9391 100.563 65.7636 99.3963 64.711 98.8546C63.6935 98.3129 61.7636 97.7296 60.4654 97.6046C58.1145 97.3129 58.1145 97.3546 56.6759 98.8546C54.8865 100.771 54.3952 102.521 54.5707 106.271L54.711 109.23L56.8865 111.646C58.4654 113.396 59.3426 114.105 60.0443 114.105C60.9215 114.105 64.1496 115.313 66.6057 116.605C70.0794 118.396 70.6408 118.73 70.6408 119.063C70.6408 119.23 71.2724 119.73 72.0443 120.146C72.8163 120.563 73.4479 121.063 73.4479 121.23C73.4479 121.396 74.1496 122.188 74.9917 122.98C75.8338 123.73 77.518 125.73 78.7461 127.438C79.9742 129.105 81.4829 131.105 82.0443 131.855C82.6408 132.605 83.5882 133.98 84.1496 134.938C84.7461 135.855 85.7636 137.438 86.4303 138.438C87.097 139.438 88.2198 141.23 88.8865 142.396C92.9215 149.48 95.3777 152.438 97.2022 152.438C98.8163 152.438 101.869 148.396 104.325 142.938C105.518 140.271 106.886 137.521 107.343 136.896C107.799 136.23 108.185 135.48 108.185 135.23C108.185 134.938 108.641 134.063 109.202 133.271C109.729 132.48 110.465 131.188 110.781 130.438C111.097 129.73 111.588 129.105 111.834 129.105C112.115 129.105 112.465 128.605 112.676 127.938C113.062 126.605 114.781 124.48 117.378 122.188C119.834 119.98 121.097 119.063 124.676 116.98C128.115 115.021 129.799 114.355 133.378 113.688C135.308 113.313 136.29 112.855 137.413 111.855C139.588 109.896 140.185 108.313 140.044 104.438C139.939 100.896 139.378 99.6463 137.308 97.9379C136.079 96.9796 133.588 96.7713 130.992 97.4379ZM59.2724 100.563C59.8338 100.896 60.5356 101.188 60.8514 101.188C61.1321 101.188 61.6935 101.48 62.0794 101.813C62.4303 102.146 63.0268 102.438 63.3426 102.438C63.6584 102.438 64.3601 102.688 64.9215 103.021C65.9391 103.646 67.9742 104.688 68.8865 105.105C69.1672 105.271 69.904 105.73 70.4654 106.188C71.0619 106.646 71.7636 107.146 72.0443 107.313C72.325 107.438 73.2022 108.063 73.9742 108.646C76.0794 110.23 76.711 110.688 77.3075 111.021C77.5882 111.188 77.904 111.438 78.0093 111.605C78.1145 111.73 79.3075 112.896 80.6408 114.188C82.0093 115.48 83.8338 117.438 84.711 118.521C86.7812 121.188 94.5005 133.438 95.3777 135.521C96.1847 137.396 97.2724 138.896 97.5882 138.521C97.8338 138.188 98.6759 135.521 98.9566 134.23C99.0619 133.73 99.3426 133.063 99.6233 132.813C99.904 132.563 100.115 132.021 100.115 131.605C100.115 131.188 100.36 130.646 100.641 130.355C100.922 130.063 101.167 129.563 101.167 129.271C101.167 128.938 101.308 128.688 101.483 128.688C101.658 128.688 101.974 128.188 102.185 127.521C103.062 124.938 104.922 121.73 109.693 114.688C111.097 112.605 114.641 109.021 116.5 107.855C117.237 107.355 118.079 106.813 118.36 106.646C118.851 106.271 120.29 105.563 122.676 104.355C123.272 104.063 124.395 103.48 125.132 103.105C125.869 102.73 126.922 102.438 127.483 102.438C128.044 102.438 129.027 102.188 129.658 101.855C130.746 101.313 134.29 100.438 136.255 100.23L137.132 100.146V104.938V109.73L133.693 109.855C131.483 109.896 129.869 110.188 129.237 110.563C128.676 110.896 127.904 111.188 127.518 111.188C127.132 111.188 126.395 111.438 125.834 111.771C125.308 112.063 124.22 112.646 123.448 113.063C122.676 113.438 121.799 113.938 121.518 114.146C121.237 114.355 120.676 114.73 120.29 114.938C119.904 115.188 119.132 115.73 118.536 116.188C117.974 116.646 117.132 117.188 116.711 117.438C116.255 117.646 115.904 118.021 115.904 118.271C115.904 118.48 115.693 118.688 115.483 118.688C114.922 118.688 113.413 120.355 111.343 123.271C110.465 124.48 109.518 125.771 109.202 126.146C108.43 127.063 106.43 130.73 106.43 131.23C106.43 131.438 106.29 131.605 106.15 131.605C105.974 131.605 105.658 132.021 105.413 132.521C105.202 133.063 104.711 134.021 104.325 134.73C103.974 135.396 103.237 136.896 102.746 138.063C102.255 139.188 101.518 140.688 101.167 141.396C100.781 142.063 100.36 142.938 100.255 143.271C100.15 143.605 99.6584 144.813 99.2022 145.896C98.7461 147.021 98.3601 148.396 98.3601 148.938C98.3601 149.521 98.1145 150.063 97.7987 150.23C97.1672 150.521 96.4654 149.605 95.3777 147.105C94.5005 145.146 93.3426 143.105 93.0268 142.938C92.8514 142.855 92.7461 142.605 92.7461 142.355C92.7461 142.105 92.29 141.23 91.6935 140.355C91.1321 139.48 90.6408 138.605 90.6408 138.438C90.6408 138.23 90.1496 137.521 89.5882 136.855C88.9917 136.188 88.5356 135.438 88.5356 135.23C88.5356 134.813 86.8163 132.146 85.4128 130.355C84.9566 129.771 84.0093 128.48 83.3426 127.438C81.6935 125.021 75.6584 117.813 74.711 117.146C74.29 116.855 73.6935 116.48 73.3777 116.355C73.0268 116.23 72.7461 115.938 72.7461 115.771C72.7461 115.563 72.325 115.23 71.7987 114.98C71.2373 114.73 70.1847 114.105 69.4128 113.563C68.6408 113.063 67.0619 112.271 65.904 111.855C64.7461 111.438 63.3426 110.896 62.7461 110.688C62.1847 110.438 60.9215 110.146 59.9391 110.063C58.9917 109.938 58.0443 109.73 57.8689 109.521C57.5882 109.188 57.2724 100.813 57.5531 100.23C57.7636 99.8129 58.1496 99.8546 59.2724 100.563Z" fill="url(#paint0_linear_2230_404)"/>
  <defs>
    <linearGradient id="paint0_linear_2230_404" x1="0%" y1="0%" x2="100%" y2="0%"> 
      <!-- x2="100%" y2="0%" define o gradiente da esquerda para a direita -->
      <stop offset="0%" stop-color="#1A4CFC"/>
      <stop offset="100%" stop-color="#33F7EB"/>
    </linearGradient>
  </defs>
  </svg>
  