<?xml version="1.0" standalone="no"?>
<!DOCTYPE svg PUBLIC "-//W3C//DTD SVG 20010904//EN"
 "http://www.w3.org/TR/2001/REC-SVG-20010904/DTD/svg10.dtd">
<svg version="1.0" xmlns="http://www.w3.org/2000/svg"
 width="512.000000pt" height="512.000000pt" viewBox="0 0 512.000000 512.000000"
 preserveAspectRatio="xMidYMid meet">
 <defs>
  <linearGradient id="paint0_linear_2230_404" x1="0%" y1="0%" x2="100%" y2="0%"> 
    <!-- x2="100%" y2="0%" define o gradiente da esquerda para a direita -->
    <stop offset="0%" stop-color="#1A4CFC"/>
    <stop offset="100%" stop-color="#33F7EB"/>
  </linearGradient>
</defs>
<g transform="translate(0.000000,512.000000) scale(0.100000,-0.100000)"
fill="url(#paint0_linear_2230_404)" stroke="none">
<path d="M2511 5106 c-87 -48 -50 -186 49 -186 51 0 100 49 100 99 0 75 -83
124 -149 87z"/>
<path d="M2024 5044 c-418 -120 -776 -366 -1034 -709 -264 -351 -392 -737
-392 -1180 1 -519 181 -972 541 -1357 l72 -77 -265 -508 c-177 -338 -266 -518
-266 -538 0 -40 25 -74 65 -91 31 -13 55 -8 409 88 207 55 378 99 380 97 1 -2
49 -134 106 -294 155 -438 157 -443 190 -460 16 -8 38 -15 50 -15 60 0 64 7
375 604 165 316 302 575 305 575 3 0 140 -259 305 -575 311 -597 315 -604 375
-604 12 0 34 7 50 15 33 17 35 22 190 460 57 160 105 292 107 294 1 2 92 -20
200 -49 603 -162 552 -151 588 -136 40 17 65 51 65 91 0 20 -89 200 -266 538
l-265 508 77 82 c148 159 259 322 350 512 254 535 250 1184 -12 1707 -199 397
-507 702 -906 899 -129 63 -353 141 -406 141 -39 0 -79 -24 -94 -57 -13 -30
-3 -87 20 -108 9 -8 80 -36 157 -61 468 -154 826 -459 1042 -890 394 -785 148
-1743 -575 -2244 -211 -146 -458 -246 -732 -294 -100 -17 -441 -17 -540 0
-668 120 -1184 552 -1399 1174 -322 935 186 1947 1132 2252 80 26 153 56 162
66 9 10 19 36 22 57 4 32 1 45 -18 66 -38 43 -73 48 -165 21z m-320 -3658
c141 -69 324 -130 468 -157 62 -11 125 -24 140 -27 l28 -7 -218 -417 c-119
-230 -220 -418 -223 -418 -3 0 -53 132 -110 293 -65 184 -112 300 -126 315
-15 15 -34 22 -60 22 -21 0 -171 -36 -333 -80 -161 -43 -295 -78 -296 -77 -1
2 350 674 383 733 12 21 15 20 124 -52 62 -41 162 -99 223 -128z m2250 -182
c106 -203 193 -370 192 -371 -1 -1 -134 34 -296 77 -162 44 -311 80 -333 80
-26 0 -45 -7 -60 -22 -14 -15 -61 -131 -126 -315 -57 -161 -107 -293 -110
-293 -8 1 -441 833 -436 838 1 2 36 8 77 14 263 36 582 164 813 326 39 27 73
46 78 42 4 -3 95 -173 201 -376z"/>
<path d="M2380 4609 c-339 -43 -655 -206 -890 -456 -410 -438 -510 -1080 -254
-1623 198 -418 568 -709 1032 -812 131 -30 432 -32 565 -5 278 56 530 186 729
375 143 137 241 271 322 442 289 612 121 1340 -407 1766 -304 245 -715 362
-1097 313z m365 -204 c193 -29 352 -91 519 -202 349 -233 557 -621 558 -1043
1 -350 -124 -653 -372 -900 -178 -179 -389 -293 -640 -347 -130 -28 -403 -25
-525 5 -252 63 -441 168 -616 342 -246 245 -372 551 -371 900 2 769 688 1359
1447 1245z"/>
<path d="M2480 3857 c-41 -22 -51 -36 -126 -176 -45 -84 -91 -159 -101 -166
-11 -8 -89 -26 -174 -40 -170 -29 -209 -43 -241 -88 -30 -42 -36 -132 -13
-177 9 -18 68 -86 131 -151 93 -95 114 -123 114 -147 0 -16 -9 -89 -21 -163
-11 -74 -19 -153 -16 -176 5 -52 43 -104 90 -127 66 -30 104 -22 268 59 83 41
159 75 169 75 10 0 87 -34 171 -76 143 -70 158 -76 205 -72 62 5 107 35 134
88 25 49 25 73 0 234 -30 193 -37 170 94 305 63 65 122 133 131 151 24 47 17
135 -15 177 -34 46 -68 59 -238 88 -84 14 -162 31 -173 38 -11 7 -56 81 -101
164 -89 169 -112 193 -197 200 -35 4 -57 -1 -91 -20z m137 -321 c29 -57 66
-120 83 -140 49 -56 137 -92 267 -112 l113 -17 -89 -92 c-138 -145 -156 -202
-127 -398 9 -59 16 -111 16 -115 0 -4 -48 16 -106 45 -187 92 -238 91 -424 -2
-81 -41 -110 -51 -110 -40 0 8 7 59 16 113 31 189 10 253 -127 396 l-87 92
122 20 c200 34 246 67 333 239 32 63 60 115 63 115 3 0 29 -47 57 -104z"/>
</g>
</svg>
