<svg version="1.1" id="Layer_1" xmlns="http://www.w3.org/2000/svg" xmlns:xlink="http://www.w3.org/1999/xlink" x="0px" y="0px"
	 width="100%" viewBox="0 0 512 512" enable-background="new 0 0 512 512" xml:space="preserve">
	 <defs>
		<linearGradient id="paint0_linear_2230_404" x1="0%" y1="0%" x2="100%" y2="0%"> 
			<stop offset="0%" stop-color="#1A4CFC"/>
			<stop offset="100%" stop-color="#33F7EB"/>
		</linearGradient>
	</defs>
<path fill="url(#paint0_linear_2230_404)" opacity="1.000000" stroke="none" 
	d="
M431.333313,513.000000 
	C415.910858,485.130798 400.800140,457.273254 385.741913,429.387390 
	C378.405396,415.801086 371.226837,402.129395 363.870422,388.554016 
	C351.852448,366.376373 339.706482,344.268036 327.732056,322.067047 
	C326.257568,319.333313 324.402161,318.306732 321.392792,318.335022 
	C310.398346,318.438507 299.400116,318.498627 288.407990,318.307098 
	C284.417450,318.237579 283.059540,319.756561 283.299377,323.605743 
	C283.537201,327.422546 283.356201,331.265991 283.338928,335.097687 
	C283.334442,336.095673 283.637085,337.366516 283.149597,338.047302 
	C279.690430,342.878387 274.656494,339.429230 270.397675,340.237671 
	C267.634979,340.762085 266.606476,339.029175 266.653839,336.357483 
	C266.736542,331.694427 266.595947,327.027435 266.677246,322.364288 
	C266.724182,319.670135 265.679565,318.257355 262.882996,318.390808 
	C262.550903,318.406616 262.216766,318.374023 261.883728,318.377869 
	C248.004990,318.537842 250.581406,316.794189 250.348557,329.516907 
	C250.118301,342.098358 252.089417,340.000275 239.518448,340.424835 
	C234.933640,340.579681 233.217422,339.090729 233.581390,334.482208 
	C233.908234,330.343964 233.594330,326.157684 233.634399,321.993286 
	C233.658569,319.479736 232.487961,318.352142 229.999756,318.357666 
	C217.505035,318.385406 205.010010,318.422302 192.515610,318.358459 
	C189.624344,318.343689 188.427261,320.267761 187.319977,322.324341 
	C177.874161,339.868103 168.530899,357.467285 159.031296,374.981750 
	C145.021698,400.811310 130.875885,426.566956 116.853333,452.389526 
	C109.483185,465.961639 102.166931,479.564606 94.995461,493.242310 
	C91.680016,499.565704 87.580498,505.495331 85.113823,512.656250 
	C84.555557,513.000000 84.111107,513.000000 83.333328,513.000000 
	C79.469475,509.078613 73.848564,508.340485 69.695229,503.891815 
	C72.566536,498.470978 75.587486,492.664215 78.703224,486.908813 
	C83.765236,477.558258 88.839928,468.213745 94.017944,458.927307 
	C95.530373,456.214874 95.524521,453.893860 94.201347,450.985626 
	C88.222969,437.845764 82.558968,424.563263 76.696564,411.369934 
	C75.864136,409.496582 75.970345,407.934387 76.914627,406.193939 
	C84.835594,391.594421 92.716820,376.973328 100.612228,362.359894 
	C107.876656,348.914337 115.154015,335.475708 122.384926,322.012146 
	C122.826897,321.189178 123.465508,320.277710 122.547768,318.379395 
	C116.215736,318.379395 109.463211,318.431366 102.711761,318.367767 
	C91.215492,318.259460 92.774925,319.634949 92.677048,308.168274 
	C92.621651,301.679047 92.698990,301.666412 99.332199,301.658600 
	C109.331802,301.646790 119.332291,301.580139 129.330460,301.699432 
	C132.151230,301.733093 133.931076,300.874084 135.308884,298.288757 
	C144.450562,281.135406 153.691895,264.034821 162.965485,246.952179 
	C174.692856,225.349411 186.478989,203.778519 198.250427,182.199692 
	C199.054596,180.725540 199.672577,179.344727 199.383148,177.503693 
	C195.636780,153.673065 206.395844,130.625671 227.380524,118.344025 
	C232.127106,115.566002 234.006439,112.475609 233.795151,106.890137 
	C233.329300,94.574921 233.700073,82.229660 233.636734,69.897133 
	C233.584885,59.801888 237.790192,51.962685 246.842819,47.678120 
	C256.243042,43.229027 265.594116,44.939857 273.387299,51.592876 
	C277.993866,55.525497 280.352173,61.203545 280.342407,67.559052 
	C280.320892,81.558456 280.458313,95.559616 280.259552,109.556206 
	C280.206909,113.264923 281.644226,115.092194 284.763916,116.909927 
	C304.114197,128.184616 315.848022,144.641129 315.052155,167.537964 
	C314.678375,178.290894 319.404816,186.313965 324.030304,194.863434 
	C334.782684,214.737549 345.548523,234.604431 356.328003,254.463867 
	C364.251068,269.060883 372.252960,283.615479 380.098450,298.253967 
	C381.473755,300.820099 383.242828,301.722656 386.070770,301.695007 
	C397.235901,301.585754 408.405396,301.793121 419.567627,301.582794 
	C423.730011,301.504395 425.581390,302.536072 425.426819,307.133179 
	C424.979950,320.421173 426.952484,318.133850 414.361328,318.340118 
	C407.067810,318.459656 399.770660,318.361847 391.692108,318.361847 
	C394.561768,326.672180 399.093628,333.246765 402.736237,340.208557 
	C410.358276,354.776062 418.406097,369.120789 426.285004,383.553772 
	C429.786407,389.967896 433.179993,396.445312 436.856445,402.757782 
	C439.118530,406.641754 439.508575,410.000366 437.443909,414.376923 
	C431.430023,427.124756 426.082672,440.185822 420.368439,453.077271 
	C419.378113,455.311493 420.389038,456.889069 421.328400,458.643066 
	C428.779724,472.556885 436.047455,486.573639 443.778992,500.329803 
	C445.896454,504.097260 444.872955,505.543915 441.629211,507.253235 
	C438.746338,508.772339 435.233154,509.356415 433.129272,512.689819 
	C432.555542,513.000000 432.111115,513.000000 431.333313,513.000000 
M294.582947,224.937500 
	C297.211609,229.556763 299.926147,234.129547 302.454865,238.802902 
	C317.940765,267.422607 333.400543,296.056519 348.838074,324.702393 
	C365.222778,355.105896 381.545471,385.542816 397.960510,415.929962 
	C401.461609,422.411102 405.243805,428.740417 409.211365,435.691284 
	C412.663025,428.006561 415.652039,420.985809 418.966858,414.122467 
	C420.687012,410.560822 420.121277,407.583435 418.250580,404.335632 
	C414.360382,397.581635 410.657562,390.718048 406.956909,383.856842 
	C399.864899,370.707825 392.891907,357.494354 385.754791,344.370026 
	C371.727814,318.575836 357.573547,292.850830 343.565826,267.046234 
	C333.747711,248.959564 324.095062,230.783142 314.345978,212.658920 
	C312.094849,208.473907 309.751617,204.338440 307.220093,199.763306 
	C302.101288,206.429764 297.206421,212.588226 290.637787,217.033951 
	C292.033844,219.814804 293.153229,222.044540 294.582947,224.937500 
M183.430298,294.003357 
	C196.539688,269.764771 209.645416,245.524200 222.765869,221.291595 
	C223.746948,219.479599 224.903717,217.636337 222.624329,216.035324 
	C217.045364,212.116653 212.815002,206.788162 208.012878,201.903961 
	C206.378021,202.747864 205.905746,204.204498 205.213913,205.480530 
	C198.646454,217.593643 192.079712,229.707138 185.513580,241.820969 
	C172.779190,265.314575 160.042038,288.806702 147.312561,312.302979 
	C140.115601,325.587280 132.948822,338.887970 125.737556,352.164490 
	C115.995888,370.099701 106.223305,388.018097 96.467644,405.945709 
	C95.485527,407.750519 94.719284,409.743744 95.555290,411.686005 
	C98.925026,419.514587 102.456284,427.273651 106.364464,436.037384 
	C110.221252,428.748169 113.488739,422.429810 116.883896,416.180817 
	C131.063690,390.081970 145.286011,364.006256 159.484344,337.917480 
	C167.337524,323.487701 175.174042,309.048828 183.430298,294.003357 
M273.278473,224.918594 
	C263.510773,227.430893 253.709869,228.224228 243.826843,225.550369 
	C241.204910,224.840988 239.460480,225.698090 238.240601,228.282852 
	C236.399826,232.183182 234.244751,235.936859 232.182480,239.730682 
	C223.615158,255.491409 214.995636,271.223907 206.479172,287.012024 
	C204.080261,291.459259 201.967102,296.060669 199.197067,301.652832 
	C207.622604,301.652832 214.891495,301.716553 222.158859,301.638977 
	C235.372803,301.497894 233.387985,303.459351 233.670563,290.358795 
	C233.962311,276.833740 230.899612,278.877777 246.133499,278.629272 
	C249.495529,278.574432 250.469604,280.032867 250.364960,283.133789 
	C250.213318,287.627808 250.487518,292.137726 250.291168,296.628204 
	C250.135696,300.183838 251.258987,301.786407 255.088211,301.710114 
	C268.774261,301.437439 266.498474,303.202026 266.628479,290.463531 
	C266.759308,277.645294 266.655334,277.718414 279.556122,278.623718 
	C282.325348,278.818024 283.401245,279.840118 283.354553,282.555084 
	C283.268585,287.552643 283.340576,292.553009 283.359222,297.552155 
	C283.366211,299.421570 283.282196,301.540253 285.913330,301.560242 
	C295.849701,301.635742 305.786957,301.590607 315.709869,301.590607 
	C315.709869,300.590576 315.823639,300.217163 315.693665,299.974121 
	C305.043121,280.061615 294.614716,260.023590 283.544250,240.346848 
	C280.596008,235.106567 278.999359,228.872910 273.278473,224.918594 
M221.296646,147.737854 
	C208.582397,169.385025 217.523727,193.063354 236.550385,204.691940 
	C256.797302,217.066330 282.175171,208.714188 293.344910,189.164459 
	C304.392487,169.828537 299.060394,144.888138 276.852112,132.141312 
	C258.991943,121.890182 233.464554,127.193649 221.296646,147.737854 
M250.331039,89.499756 
	C250.332108,93.992363 250.328339,98.484978 250.335358,102.977577 
	C250.346115,109.879242 250.349167,109.875381 257.181702,109.685425 
	C257.844574,109.666992 258.577240,109.560974 259.163055,109.789314 
	C263.137543,111.338463 263.697052,109.208725 263.675568,105.934486 
	C263.599335,94.287491 263.671112,82.639618 263.637360,70.992218 
	C263.622162,65.753052 260.805908,62.309128 256.763794,62.411560 
	C253.066650,62.505249 250.441895,65.918495 250.360275,71.029083 
	C250.267258,76.851379 250.334015,82.676231 250.331039,89.499756 
z" />
<path fill="url(#paint0_linear_2230_404)" opacity="1.000000" stroke="none" 
	d="
M285.750000,1.000000 
	C288.520935,3.580481 291.946838,3.183929 295.068329,3.670083 
	C301.536438,4.677439 301.786041,4.950290 300.348236,11.129380 
	C297.713379,22.452837 296.417542,23.112373 285.245972,19.225691 
	C283.034698,18.456362 282.655701,16.898251 282.693451,14.970647 
	C282.781281,10.482944 283.856995,6.150666 284.911804,1.401333 
	C285.000000,1.000000 285.500000,1.000000 285.750000,1.000000 
z" />
<path fill="url(#paint0_linear_2230_404)" opacity="1.000000" stroke="none" 
	d="
M265.533142,1.000000 
	C266.109009,5.139133 266.182526,9.279617 266.339905,13.416911 
	C266.440094,16.051813 265.487915,17.378103 262.623749,17.360292 
	C247.560989,17.266626 249.841675,18.765039 249.658173,5.392577 
	C249.642258,4.232868 249.733414,3.071690 249.887421,1.455597 
	C255.022095,1.000000 260.044189,1.000000 265.533142,1.000000 
z"/>
<path fill="url(#paint0_linear_2230_404)" opacity="1.000000" stroke="none" 
	d="
M204.467606,513.000000 
	C203.887726,512.021545 203.702560,511.045166 203.674225,510.064270 
	C203.298965,497.071960 204.365906,496.160339 217.417053,497.653076 
	C220.046249,497.953796 221.315399,499.125519 221.308502,501.713501 
	C221.299255,505.173615 221.261185,508.633667 221.117752,512.546875 
	C215.645065,513.000000 210.290146,513.000000 204.467606,513.000000 
z"/>
<path fill="url(#paint0_linear_2230_404)" opacity="1.000000" stroke="none" 
	d="
M142.467606,513.000000 
	C143.237045,509.453064 142.658340,505.773254 142.594238,502.172638 
	C142.531998,498.677094 143.908386,497.549896 147.280777,497.618103 
	C161.781219,497.911377 159.017242,495.884613 159.339966,509.118286 
	C159.364105,510.108002 159.278748,511.100403 159.122147,512.545776 
	C153.645065,513.000000 148.290146,513.000000 142.467606,513.000000 
z"/>
<path fill="url(#paint0_linear_2230_404)" opacity="1.000000" stroke="none" 
	d="
M173.467606,513.000000 
	C174.227936,509.448425 173.592941,505.772095 173.603638,502.160553 
	C173.612518,499.151001 174.383255,497.557556 177.783142,497.623840 
	C192.993576,497.920349 189.958160,495.602020 190.338821,509.612579 
	C190.361237,510.437653 190.279587,511.265533 190.123184,512.546021 
	C184.645065,513.000000 179.290146,513.000000 173.467606,513.000000 
z"/>
<path fill="url(#paint0_linear_2230_404)" opacity="1.000000" stroke="none" 
	d="
M234.467606,513.000000 
	C235.268417,509.286407 234.571350,505.446198 234.609207,501.672577 
	C234.639542,498.650879 235.850067,497.587402 238.773514,497.639832 
	C254.047195,497.913605 250.977234,495.696808 251.336853,509.611877 
	C251.358154,510.436218 251.270447,511.263336 251.116730,512.544556 
	C245.645065,513.000000 240.290146,513.000000 234.467606,513.000000 
z"/>
<path fill="url(#paint0_linear_2230_404)" opacity="1.000000" stroke="none" 
	d="
M113.466866,513.000000 
	C112.903236,509.049164 112.804230,505.098419 112.713791,501.147430 
	C112.706276,500.819031 112.640152,500.413757 112.797379,500.171387 
	C116.082344,495.107513 121.095810,498.574860 125.246040,497.743164 
	C127.622719,497.266907 129.435333,498.199982 129.332840,501.201202 
	C129.209015,504.827423 129.258743,508.459595 129.116684,512.544556 
	C123.977905,513.000000 118.955818,513.000000 113.466866,513.000000 
z"/>
<path fill="url(#paint0_linear_2230_404)" opacity="1.000000" stroke="none" 
	d="
M266.466858,513.000000 
	C265.895966,509.043579 265.242310,505.006378 265.808990,501.148499 
	C266.809296,494.338348 272.391602,498.545624 275.806335,497.844208 
	C278.141510,497.364624 282.280762,496.051270 282.296539,501.185791 
	C282.307709,504.820679 282.261169,508.455811 282.120178,512.545410 
	C276.977905,513.000000 271.955811,513.000000 266.466858,513.000000 
z"/>
<path fill="url(#paint0_linear_2230_404)" opacity="1.000000" stroke="none" 
	d="
M296.466858,513.000000 
	C295.897034,509.043640 295.244934,505.006531 295.812103,501.148682 
	C296.812592,494.343109 302.391968,498.540619 305.806549,497.843506 
	C308.147522,497.365631 312.282776,496.065613 312.304688,501.186279 
	C312.320221,504.820557 312.260895,508.455139 312.117493,512.544800 
	C306.977905,513.000000 301.955811,513.000000 296.466858,513.000000 
z"/>
<path fill="url(#paint0_linear_2230_404)" opacity="1.000000" stroke="none" 
	d="
M327.466858,513.000000 
	C326.892120,509.209869 326.779327,505.419861 326.682343,501.629456 
	C326.669708,501.136108 326.561584,500.526489 326.796051,500.163361 
	C330.072693,495.088043 335.094482,498.574310 339.248047,497.738617 
	C341.634735,497.258423 343.439575,498.182312 343.335724,501.190186 
	C343.210419,504.820374 343.263397,508.456726 343.119598,512.545166 
	C337.977905,513.000000 332.955811,513.000000 327.466858,513.000000 
z"/>
<path fill="url(#paint0_linear_2230_404)" opacity="1.000000" stroke="none" 
	d="
M358.466858,513.000000 
	C357.896790,509.042603 357.148560,504.969635 357.832397,501.153290 
	C359.041534,494.405457 364.706421,498.544037 368.296967,497.802612 
	C370.630035,497.320862 374.367920,496.422180 374.303375,501.183716 
	C374.254089,504.818970 374.259399,508.455017 374.120239,512.545349 
	C368.977905,513.000000 363.955811,513.000000 358.466858,513.000000 
z"/>
<path fill="url(#paint0_linear_2230_404)" opacity="1.000000" stroke="none" 
	d="
M388.466858,513.000000 
	C387.899261,509.046967 387.252808,505.013885 387.818115,501.158508 
	C388.815460,494.356476 394.390778,498.557983 397.800140,497.853210 
	C400.148071,497.367889 404.270386,496.098297 404.304077,501.195221 
	C404.328064,504.826355 404.261139,508.458069 404.117371,512.544800 
	C398.977905,513.000000 393.955811,513.000000 388.466858,513.000000 
z"/>
<path fill="url(#paint0_linear_2230_404)" opacity="1.000000" stroke="none" 
	d="
M160.331665,47.797375 
	C157.575928,44.279896 155.134628,40.956490 152.698181,37.629543 
	C151.228058,35.622093 151.533325,33.979191 153.677505,32.659023 
	C156.765457,30.757782 159.894226,28.912144 162.880432,26.860605 
	C164.524719,25.730963 165.906754,25.365610 167.048889,27.243647 
	C169.509430,31.289505 171.868195,35.397247 174.485336,39.848263 
	C169.643494,42.812965 165.607498,46.137711 160.331665,47.797375 
z"/>
<path fill="url(#paint0_linear_2230_404)" opacity="1.000000" stroke="none" 
	d="
M145.697296,55.251328 
	C147.990433,57.488758 148.231461,59.298676 145.805710,61.271244 
	C142.859604,63.666946 140.900909,68.045853 137.346146,68.661293 
	C133.567184,69.315559 131.938660,64.413780 129.090042,62.271534 
	C123.886467,58.358273 123.965126,58.254101 128.742264,53.980045 
	C128.989395,53.758942 129.231232,53.531799 129.472198,53.303944 
	C138.035080,45.206985 138.335068,45.237843 145.697296,55.251328 
z"/>
<path fill="url(#paint0_linear_2230_404)" opacity="1.000000" stroke="none" 
	d="
M347.388672,42.678425 
	C342.487640,40.646038 342.759888,37.935188 344.890930,34.020416 
	C350.348328,23.995041 350.184052,23.903149 359.552917,30.195515 
	C361.316406,31.379930 363.065887,32.585182 365.189087,34.030888 
	C363.197113,38.742664 359.681610,42.265949 357.063965,46.334198 
	C356.178650,47.710171 354.729523,47.337479 353.523285,46.603294 
	C351.555603,45.405621 349.638672,44.124603 347.388672,42.678425 
z"/>
<path fill="url(#paint0_linear_2230_404)" opacity="1.000000" stroke="none" 
	d="
M118.540764,75.404755 
	C121.015045,77.863075 124.072029,79.077675 126.173073,81.998535 
	C123.882233,85.434174 121.524605,88.978806 119.157166,92.516861 
	C117.918808,94.367546 116.399788,94.704239 114.499954,93.443634 
	C111.465408,91.430130 108.406830,89.451965 105.332939,87.498955 
	C103.191559,86.138412 103.644203,84.591019 104.847084,82.884903 
	C107.035233,79.781311 108.983803,76.483353 111.402328,73.574089 
	C114.437897,69.922562 116.110497,74.040985 118.540764,75.404755 
z"/>
<path fill="url(#paint0_linear_2230_404)" opacity="1.000000" stroke="none" 
	d="
M374.894073,49.909157 
	C376.475311,48.433659 377.794861,47.205738 379.086426,46.003887 
	C384.112854,47.759243 386.828705,51.860470 390.179565,55.191879 
	C391.542694,56.547081 391.225311,57.820061 389.950867,59.036804 
	C389.472687,59.493317 389.026184,59.982967 388.565002,60.457302 
	C379.629059,69.648880 378.862823,69.630859 370.179688,60.151539 
	C369.074799,58.945301 368.539490,57.861549 369.595398,56.223907 
	C371.040161,53.983196 372.634583,51.915359 374.894073,49.909157 
z"/>
<path fill="url(#paint0_linear_2230_404)" opacity="1.000000" stroke="none" 
	d="
M414.328186,121.754517 
	C411.858002,118.157867 410.391846,114.458061 408.852844,110.778587 
	C408.000610,108.741051 408.030182,107.375481 410.244629,106.351768 
	C414.148621,104.546982 417.988159,102.602715 422.038788,100.627037 
	C425.992310,105.283096 427.493713,110.654129 429.477814,116.336601 
	C424.514771,118.612480 419.891541,121.032722 414.328186,121.754517 
z"/>
<path fill="url(#paint0_linear_2230_404)" opacity="1.000000" stroke="none" 
	d="
M93.830086,102.730240 
	C99.685814,102.232201 103.605782,106.149117 108.199135,108.453804 
	C108.985237,108.848228 108.973747,109.865799 108.560364,110.683311 
	C106.489738,114.778183 105.385712,119.363976 102.371559,123.320526 
	C98.246864,121.692451 94.268097,120.144424 90.307930,118.550194 
	C88.025070,117.631195 87.398315,116.110268 88.540253,113.807327 
	C90.301178,110.256096 91.935722,106.642189 93.830086,102.730240 
z"/>
<path fill="url(#paint0_linear_2230_404)" opacity="1.000000" stroke="none" 
	d="
M391.019867,81.039230 
	C394.817810,76.965271 398.906555,73.679802 403.471375,71.150215 
	C405.468414,72.103340 406.163605,73.892456 407.177155,75.345016 
	C414.186981,85.390915 413.551788,87.425018 402.225922,92.617760 
	C400.347748,93.478867 398.941284,93.140656 397.861969,91.664993 
	C395.433380,88.344612 392.608307,85.278183 391.019867,81.039230 
z"/>
<path fill="url(#paint0_linear_2230_404)" opacity="1.000000" stroke="none" 
	d="
M202.377731,26.543161 
	C197.718033,28.659361 193.310608,30.487638 188.633469,32.427799 
	C185.514252,28.127663 184.575302,23.115437 182.199875,18.818180 
	C181.527588,17.601994 182.145096,16.380186 183.382996,15.982622 
	C188.081299,14.473714 192.331223,11.684635 197.704605,10.901484 
	C199.304443,16.078054 202.476364,20.640671 202.377731,26.543161 
z"/>
<path fill="url(#paint0_linear_2230_404)" opacity="1.000000" stroke="none" 
	d="
M436.433838,150.790253 
	C431.965332,151.617126 427.892212,152.271881 423.591919,152.963150 
	C421.600769,148.875641 419.964996,144.298340 420.195129,140.201218 
	C420.563629,133.642319 427.812195,136.311813 431.602356,133.985992 
	C433.551880,132.789673 436.059479,133.441635 436.581879,136.816116 
	C437.136169,140.396957 438.196320,143.899918 439.045197,147.434586 
	C439.502106,149.337112 438.502106,150.207336 436.433838,150.790253 
z"/>
<path fill="url(#paint0_linear_2230_404)" opacity="1.000000" stroke="none" 
	d="
M79.018921,151.088013 
	C77.182289,145.458115 80.483002,140.763535 81.164230,135.645721 
	C81.216202,135.255295 82.633476,134.653275 83.269432,134.797318 
	C87.609871,135.780396 91.929123,136.872803 96.212578,138.081055 
	C97.333801,138.397293 97.465187,139.746048 97.173553,140.643555 
	C95.759254,144.996170 95.899651,149.787582 93.596779,154.073318 
	C88.751167,153.062881 83.944847,152.887161 79.018921,151.088013 
z"/>
<path fill="url(#paint0_linear_2230_404)" opacity="1.000000" stroke="none" 
	d="
M330.348114,27.210548 
	C328.777954,30.978264 326.776917,31.697752 323.137726,30.160192 
	C312.306488,25.583994 312.420105,25.823614 317.018707,14.601951 
	C318.552948,10.858042 320.201538,10.042369 323.709076,11.820957 
	C327.082275,13.531422 330.628143,14.901376 334.110413,16.426327 
	C334.096954,20.501291 332.070190,23.600616 330.348114,27.210548 
z"/>
<path fill="url(#paint0_linear_2230_404)" opacity="1.000000" stroke="none" 
	d="
M431.097107,185.343445 
	C427.070374,185.747177 425.648895,184.381836 425.578766,180.617432 
	C425.355011,168.605606 426.497437,167.361206 438.620392,167.642502 
	C441.004547,167.697845 442.443420,168.412689 442.318054,171.056412 
	C442.263153,172.213882 442.354065,173.377457 442.338226,174.537720 
	C442.165161,187.202713 443.956818,185.123108 431.097107,185.343445 
z"/>
<path fill="url(#paint0_linear_2230_404)" opacity="1.000000" stroke="none" 
	d="
M221.286285,3.880433 
	C221.867554,3.747783 222.033157,3.708834 222.196548,3.716667 
	C225.389984,3.869746 229.774048,0.626455 231.447540,3.701023 
	C233.517838,7.504657 233.363922,12.561513 233.943680,17.105919 
	C234.101791,18.345137 232.848267,19.006399 231.607224,19.250296 
	C228.381439,19.884253 225.053528,21.396353 221.957306,21.013582 
	C214.508743,20.092749 217.461609,12.834782 215.382614,8.594575 
	C213.725830,5.215470 216.519943,4.831384 218.968430,4.535378 
	C219.614456,4.457278 220.236511,4.181123 221.286285,3.880433 
z"/>
<path fill="url(#paint0_linear_2230_404)" opacity="1.000000" stroke="none" 
	d="
M74.671661,173.267334 
	C74.655113,170.196747 75.904480,168.242874 78.517822,168.836670 
	C82.892784,169.830750 87.425346,169.151733 91.332382,170.078384 
	C91.332382,174.100479 91.225693,177.728317 91.365135,181.346664 
	C91.482903,184.402481 90.127220,185.619720 87.191872,185.336884 
	C87.027252,185.321014 86.859428,185.341537 86.693199,185.338821 
	C72.285561,185.104080 74.963287,187.246475 74.671661,173.267334 
z"/>
<path fill="url(#paint0_linear_2230_404)" opacity="1.000000" stroke="none" 
	d="
M278.424316,178.954178 
	C274.267853,186.110825 268.723358,190.677322 260.638245,191.706070 
	C242.372147,194.030289 231.338104,178.980652 234.041336,164.398270 
	C237.643448,144.967041 260.444031,139.669342 273.687988,151.769897 
	C279.129150,156.741287 283.190521,167.266113 278.424316,178.954178 
M262.466888,164.986938 
	C259.938324,162.195786 256.890472,161.282715 253.718567,163.493835 
	C250.857727,165.488144 249.869247,168.260788 251.878510,171.662415 
	C253.744507,174.821533 256.653778,175.576721 259.509766,174.222839 
	C262.906158,172.612778 264.744843,169.672806 262.466888,164.986938 
z"/>

</svg>