<?xml version="1.0" standalone="no"?>
<!DOCTYPE svg PUBLIC "-//W3C//DTD SVG 20010904//EN"
 "http://www.w3.org/TR/2001/REC-SVG-20010904/DTD/svg10.dtd">
<svg version="1.0" xmlns="http://www.w3.org/2000/svg"
 width="512.000000pt" height="512.000000pt" viewBox="0 0 512.000000 512.000000"
 preserveAspectRatio="xMidYMid meet">

<g transform="translate(0.000000,512.000000) scale(0.100000,-0.100000)"
fill="url(#paint0_linear_2230_404)" stroke="none">

<path d="M1893 5105 c-976 -147 -1735 -910 -1877 -1886 -21 -144 -21 -485 0
-628 69 -472 285 -908 619 -1245 184 -187 361 -314 600 -432 223 -109 426
-173 670 -210 135 -20 439 -23 575 -6 388 51 741 193 1066 428 21 15 31 3 404
-486 211 -276 401 -516 424 -534 261 -212 646 -85 731 239 38 146 -3 307 -107
418 -24 25 -248 202 -498 392 -250 191 -470 359 -488 373 l-34 27 37 48 c56
73 130 197 189 315 362 724 298 1585 -167 2260 -28 41 -92 122 -143 181 -326
379 -773 635 -1278 733 -143 27 -576 35 -723 13z m518 -165 c658 -67 1232
-432 1569 -997 273 -457 355 -1017 225 -1534 -91 -364 -271 -683 -535 -949
-420 -423 -1001 -643 -1589 -600 -921 66 -1680 729 -1866 1627 -94 453 -33
917 175 1334 189 376 498 693 870 888 364 190 760 270 1151 231z m1969 -3908
c492 -377 505 -389 535 -446 74 -146 13 -322 -134 -390 -73 -33 -171 -29 -247
9 -58 30 -68 43 -446 537 l-388 506 83 85 c45 46 84 85 87 85 3 1 232 -173
510 -386z"/>
<path d="M2180 4768 c-32 -17 -52 -60 -44 -92 12 -51 35 -59 192 -72 173 -15
306 -42 446 -91 574 -199 997 -685 1117 -1281 27 -136 37 -400 19 -539 -35
-285 -150 -571 -322 -805 -77 -106 -270 -296 -373 -369 -240 -170 -515 -277
-794 -309 -146 -17 -397 -8 -533 19 -604 121 -1092 552 -1287 1137 -117 349
-117 726 -1 1077 42 127 147 334 227 447 87 122 282 317 403 402 156 110 374
214 533 254 70 17 103 40 113 79 8 33 -15 77 -50 94 -25 11 -37 11 -95 -4
-163 -43 -377 -138 -524 -232 -217 -138 -424 -345 -563 -559 -440 -681 -397
-1562 107 -2196 90 -113 252 -267 367 -348 503 -357 1119 -451 1697 -259 665
221 1153 805 1261 1507 21 140 21 403 0 541 -114 741 -628 1330 -1341 1537
-185 54 -504 89 -555 62z"/>
<path d="M2136 4166 c-86 -32 -89 -37 -573 -867 -254 -436 -479 -825 -499
-863 -31 -58 -37 -79 -37 -131 0 -40 7 -77 20 -106 25 -56 99 -124 149 -138
57 -16 1993 -15 2045 1 55 16 118 73 145 132 26 56 32 144 13 193 -22 60 -976
1688 -1007 1719 -18 19 -47 41 -64 50 -44 23 -143 28 -192 10z m136 -184 c13
-16 236 -394 496 -840 346 -595 472 -819 472 -842 0 -19 -9 -40 -25 -55 l-24
-25 -969 0 c-950 0 -970 0 -994 20 -31 24 -39 59 -23 97 24 58 948 1638 967
1656 31 26 72 22 100 -11z"/>
<path d="M2162 3560 c-11 -11 -24 -35 -27 -52 -3 -18 -5 -169 -3 -335 l3 -301
24 -26 c32 -34 88 -36 119 -3 22 23 22 28 22 358 l0 336 -23 21 c-30 28 -86
29 -115 2z"/>
<path d="M2160 2620 c-26 -26 -33 -59 -28 -127 4 -46 10 -61 32 -80 36 -30 80
-30 111 2 22 21 25 33 25 103 0 69 -3 81 -23 100 -30 29 -89 30 -117 2z"/>
<path d="M4574 586 c-43 -19 -60 -66 -38 -112 20 -42 104 -121 137 -129 55
-14 116 47 103 101 -7 27 -65 95 -105 123 -39 27 -63 31 -97 17z"/>
<defs>
  <linearGradient id="paint0_linear_2230_404" x1="0%" y1="0%" x2="100%" y2="0%"> 
    <!-- x2="100%" y2="0%" define o gradiente da esquerda para a direita -->
    <stop offset="0%" stop-color="#1A4CFC"/>
    <stop offset="100%" stop-color="#33F7EB"/>
  </linearGradient>
</defs>
</g>
</svg>
