<?xml version="1.0" standalone="no"?>
<!DOCTYPE svg PUBLIC "-//W3C//DTD SVG 20010904//EN"
 "http://www.w3.org/TR/2001/REC-SVG-20010904/DTD/svg10.dtd">
<svg version="1.0" xmlns="http://www.w3.org/2000/svg"
 width="664.000000pt" height="664.000000pt" viewBox="0 0 664.000000 664.000000"
 preserveAspectRatio="xMidYMid meet">
<metadata>
Created by potrace 1.14, written by Peter Selinger 2001-2017
</metadata>
<g transform="translate(0.000000,664.000000) scale(0.100000,-0.100000)"
fill="#000000" stroke="none">
<path d="M3569 6591 c-52 -26 -129 -72 -173 -101 -43 -28 -92 -57 -108 -62
-17 -6 -42 -23 -57 -37 -15 -15 -54 -40 -87 -55 -32 -16 -75 -38 -94 -48 -162
-87 -376 -167 -470 -174 -36 -3 -159 -6 -274 -7 l-209 -2 -101 49 c-264 127
-308 138 -384 100 -57 -29 -77 -46 -118 -99 -90 -115 -116 -261 -62 -343 79
-119 219 -217 343 -238 17 -3 44 -14 60 -24 17 -10 93 -33 170 -51 135 -32
147 -33 350 -33 241 0 297 10 430 74 46 22 86 40 89 40 18 0 262 123 336 169
47 30 95 53 107 53 36 1 73 -29 74 -60 1 -15 3 -38 4 -52 1 -14 5 -70 9 -125
15 -229 21 -292 50 -465 17 -101 20 -116 36 -195 18 -88 21 -97 39 -149 10
-28 33 -91 50 -141 46 -130 55 -151 152 -350 103 -211 187 -341 280 -436 83
-85 100 -92 159 -67 54 23 107 72 165 153 55 77 74 134 71 213 -3 71 -43 162
-120 272 -25 36 -51 76 -58 90 -7 14 -26 45 -44 70 -37 52 -133 231 -137 257
-2 10 -18 63 -36 118 -18 55 -34 111 -36 125 -1 14 -5 34 -8 45 -3 11 -8 42
-11 68 -3 27 -8 52 -10 55 -2 4 -7 34 -10 67 -4 33 -9 71 -11 85 -2 14 -7 57
-10 95 -4 39 -8 81 -9 95 -5 39 -17 188 -21 265 -3 39 -7 174 -10 300 -5 218
-7 248 -20 320 -14 72 -113 185 -162 185 -16 0 -72 -22 -124 -49z m176 -63 c2
-13 6 -214 9 -448 2 -234 7 -438 9 -455 8 -41 22 -170 32 -295 3 -30 7 -66 10
-80 5 -24 8 -37 19 -86 2 -12 5 -46 7 -75 1 -30 10 -74 19 -99 10 -25 20 -64
24 -87 3 -24 12 -55 20 -71 8 -15 16 -41 19 -57 15 -86 215 -420 310 -517 7
-7 30 -35 50 -62 44 -59 44 -83 -2 -154 -17 -27 -49 -85 -71 -130 -22 -45 -43
-82 -48 -82 -15 0 -174 243 -219 335 -11 22 -36 69 -56 105 -19 36 -65 137
-102 225 -36 88 -71 165 -77 172 -6 7 -7 13 -3 13 4 0 3 6 -2 13 -14 16 -59
156 -79 242 -25 111 -24 105 -39 220 -9 69 -13 92 -19 113 -11 36 -16 137 -22
447 -8 425 -8 428 -19 432 -6 1 -39 -24 -75 -57 -82 -76 -336 -236 -500 -316
-204 -99 -247 -117 -306 -128 -10 -2 -30 -7 -44 -10 -67 -16 -264 -22 -355
-12 -22 3 -64 8 -93 11 -96 10 -126 17 -237 55 -60 20 -112 37 -115 38 -29 3
-74 20 -115 42 -104 57 -134 71 -157 72 -58 3 -55 31 19 155 24 41 43 78 43
83 0 6 4 10 9 10 5 0 11 12 13 28 3 23 8 27 38 30 33 3 71 -17 175 -92 11 -8
31 -17 45 -20 32 -6 94 -28 153 -55 70 -32 151 -40 387 -36 164 2 228 7 270
19 30 9 72 21 92 26 20 5 51 18 70 29 18 10 49 22 68 26 31 7 308 148 390 200
19 12 40 24 45 26 43 18 307 204 335 237 40 46 67 53 75 20z"/>
<path d="M4706 6400 c-42 -13 -87 -47 -122 -94 -37 -48 -50 -88 -60 -171 -8
-73 -8 -406 1 -530 3 -49 8 -111 9 -137 2 -27 13 -74 24 -105 11 -32 37 -114
56 -181 45 -152 103 -274 229 -477 27 -44 52 -82 56 -85 30 -22 277 -358 296
-404 23 -53 -5 -85 -78 -91 -19 -2 -39 -15 -59 -39 -16 -20 -35 -36 -41 -36
-26 0 -190 -93 -367 -208 -90 -59 -145 -105 -255 -216 -77 -78 -160 -165 -185
-195 -25 -30 -54 -63 -65 -75 -40 -42 -123 -152 -140 -186 -10 -19 -35 -59
-55 -90 -75 -110 -140 -268 -143 -345 -1 -54 27 -109 88 -171 69 -71 162 -103
273 -96 47 4 222 207 251 291 14 44 104 194 150 251 114 143 196 219 349 321
239 160 452 275 692 374 181 75 233 102 282 147 101 95 124 169 82 255 -28 56
-129 187 -236 305 -28 31 -137 153 -161 182 -10 12 -32 37 -48 56 -111 131
-287 422 -349 578 -82 203 -94 281 -105 622 -9 290 -12 326 -35 371 -68 132
-218 213 -334 179z m50 -120 c34 -16 84 -32 111 -35 70 -9 79 -13 91 -40 12
-27 10 -45 -14 -118 -13 -38 -16 -90 -17 -236 0 -163 5 -217 28 -331 3 -14 8
-41 11 -60 16 -111 102 -361 162 -473 49 -90 113 -195 128 -208 8 -6 14 -17
14 -24 0 -6 9 -20 20 -30 11 -10 20 -22 20 -27 0 -5 6 -15 13 -23 19 -20 40
-47 67 -85 13 -19 27 -37 30 -40 3 -3 35 -41 70 -85 84 -104 363 -383 418
-418 23 -15 42 -32 42 -37 0 -12 -126 -70 -152 -70 -10 0 -45 -11 -78 -25 -33
-14 -70 -25 -82 -26 -13 0 -36 -9 -53 -20 -53 -34 -149 -79 -169 -79 -10 0
-42 -13 -70 -29 -28 -16 -78 -43 -111 -61 -33 -18 -76 -42 -95 -53 -19 -11
-80 -45 -135 -75 -55 -31 -102 -58 -105 -62 -3 -4 -46 -35 -96 -69 -103 -70
-214 -176 -311 -295 -71 -89 -176 -258 -194 -315 -7 -20 -19 -47 -29 -61 -20
-30 -60 -127 -60 -146 0 -31 -70 -40 -119 -14 -21 10 -55 22 -76 26 -22 5 -43
9 -47 10 -5 1 -17 2 -28 3 -34 2 -43 44 -21 105 23 66 219 363 338 511 92 116
372 405 392 405 6 0 46 24 89 54 42 30 109 71 147 92 39 20 95 50 125 66 30
16 87 47 126 69 39 21 79 39 88 39 10 0 37 11 61 25 24 14 54 28 67 30 56 11
83 18 98 26 8 5 32 15 53 24 l38 15 -17 29 c-10 16 -28 35 -40 42 -27 14 -153
143 -268 274 -44 50 -83 92 -86 95 -22 18 -150 194 -210 290 -107 169 -197
374 -216 494 -3 22 -10 51 -16 65 -5 14 -9 27 -8 29 1 3 -11 88 -17 117 -2 11
-6 40 -9 65 -2 25 -7 70 -11 100 -18 155 0 530 28 583 12 22 11 22 85 -13z"/>
<path d="M1020 5038 c-39 -10 -91 -62 -121 -121 -18 -33 -19 -51 -14 -145 3
-59 7 -118 9 -132 4 -25 13 -92 22 -165 3 -22 7 -51 9 -65 1 -14 6 -54 9 -90
4 -36 9 -82 11 -102 19 -159 26 -578 13 -686 -26 -206 -148 -501 -302 -732
-31 -47 -80 -131 -107 -187 -58 -117 -59 -136 -16 -242 38 -91 88 -153 170
-208 43 -30 98 -34 142 -10 34 17 132 115 198 197 130 162 263 430 352 710 32
102 28 84 52 205 4 23 3 560 -2 655 -2 36 -7 101 -11 145 -12 118 -9 160 10
191 17 25 21 26 77 20 32 -3 121 -26 196 -51 76 -24 153 -47 172 -50 19 -3 37
-8 41 -10 4 -2 22 -7 41 -10 19 -3 48 -8 64 -12 135 -29 413 -33 544 -8 11 2
46 6 78 10 32 3 65 8 73 10 8 2 33 6 55 10 135 20 333 88 416 143 93 62 163
163 163 236 0 70 -59 190 -125 257 -79 80 -132 113 -178 112 -22 0 -73 -18
-122 -41 -46 -23 -95 -43 -109 -46 -14 -2 -43 -11 -65 -19 -232 -86 -205 -81
-385 -80 -91 0 -187 3 -215 7 -27 3 -69 9 -93 12 -23 3 -91 19 -150 35 -59 17
-114 32 -122 34 -203 54 -381 113 -549 180 -122 49 -171 58 -231 43z m27 -112
c14 -13 43 -29 64 -35 21 -7 39 -16 39 -20 0 -8 30 -19 73 -28 10 -1 39 -14
65 -28 26 -14 59 -25 74 -25 16 0 28 -4 28 -8 0 -11 63 -39 115 -51 108 -25
222 -60 241 -73 6 -4 40 -11 74 -14 35 -3 85 -14 110 -24 81 -32 218 -51 460
-66 90 -5 114 -3 166 14 33 12 73 23 88 26 15 3 46 14 69 25 23 11 58 22 77
24 39 5 143 59 234 120 44 29 64 37 75 30 8 -5 34 -38 58 -74 24 -35 49 -71
56 -80 42 -55 77 -131 67 -143 -12 -13 -114 -55 -200 -83 -41 -14 -95 -34
-120 -45 -24 -11 -63 -22 -85 -24 -54 -6 -61 -8 -125 -27 -75 -23 -137 -27
-415 -27 -322 0 -344 3 -515 61 -63 21 -124 39 -135 39 -11 0 -30 7 -42 15
-11 8 -68 30 -124 49 -57 19 -144 56 -194 84 -49 27 -94 47 -99 44 -12 -6 -1
-103 22 -192 11 -41 23 -97 27 -125 4 -27 9 -59 10 -70 2 -11 6 -45 9 -75 4
-30 9 -76 12 -102 3 -26 7 -71 9 -100 2 -29 7 -89 11 -133 12 -136 6 -417 -11
-445 -1 -3 -6 -30 -9 -61 -7 -56 -10 -74 -22 -134 -9 -46 -39 -134 -68 -200
-15 -33 -31 -69 -35 -80 -48 -110 -90 -193 -133 -260 -29 -44 -67 -104 -86
-134 -19 -30 -54 -77 -77 -106 -23 -28 -53 -70 -66 -93 -37 -65 -42 -63 -136
70 -65 91 -93 139 -93 158 0 7 27 37 60 68 102 93 212 257 283 418 43 100 114
307 121 357 4 21 11 47 16 58 29 53 32 728 5 884 -12 68 -15 94 -21 170 -3 44
-15 119 -25 167 -10 48 -19 101 -19 118 0 16 -9 54 -20 84 -22 58 -32 114 -23
129 8 13 52 -1 80 -27z"/>
<path d="M2365 3872 c-114 -20 -183 -65 -244 -160 -39 -62 -52 -125 -51 -247
3 -199 2 -302 -5 -370 -12 -140 -21 -187 -47 -244 -11 -24 -21 -51 -23 -60
-23 -102 -93 -271 -151 -363 -14 -22 -32 -59 -40 -81 -8 -23 -28 -62 -44 -87
-15 -25 -44 -74 -62 -110 -48 -92 -167 -290 -193 -320 -22 -26 -103 -165 -148
-256 -37 -74 -70 -181 -63 -208 8 -33 81 -112 130 -141 38 -22 149 -56 229
-70 25 -5 116 -25 207 -45 148 -33 391 -112 492 -159 86 -40 279 -170 327
-220 21 -21 57 -62 82 -91 24 -29 54 -64 67 -79 29 -33 82 -108 82 -116 0 -3
18 -28 40 -56 22 -28 40 -56 40 -62 0 -15 78 -145 109 -181 55 -64 103 -106
126 -112 78 -19 212 32 277 106 48 54 96 147 90 175 -23 104 -145 389 -188
436 -8 8 -14 19 -14 23 0 4 -19 34 -42 68 -24 33 -47 68 -53 76 -32 49 -133
172 -192 234 -102 105 -289 233 -408 277 -33 12 -64 26 -70 30 -23 18 -148 62
-285 99 -164 45 -253 77 -268 95 -17 20 37 150 138 332 121 219 243 508 264
628 3 16 10 44 16 63 7 19 14 46 16 59 2 14 6 35 9 48 14 72 26 139 29 172 1
11 6 34 9 50 34 144 50 309 50 505 1 138 -4 164 -46 248 -35 69 -76 112 -110
113 -12 0 -31 2 -42 3 -11 1 -29 0 -40 -2z m112 -137 c10 -159 2 -368 -17
-473 -10 -59 -18 -114 -24 -177 -4 -43 -15 -108 -32 -195 -8 -41 -16 -89 -19
-105 -2 -17 -8 -45 -14 -63 -5 -18 -10 -36 -10 -40 -5 -47 -83 -255 -149 -392
-38 -81 -152 -292 -182 -340 -6 -8 -15 -26 -21 -40 -5 -13 -14 -27 -18 -30 -4
-3 -30 -43 -58 -90 -29 -47 -60 -94 -70 -105 -10 -11 -30 -36 -43 -55 -13 -19
-30 -41 -37 -48 -25 -26 -44 -70 -32 -77 5 -4 47 -9 92 -11 163 -9 194 -12
214 -22 20 -11 75 -25 143 -37 51 -9 140 -32 191 -51 24 -8 52 -17 61 -19 10
-2 53 -19 95 -38 43 -19 89 -38 103 -42 39 -12 226 -123 261 -156 17 -16 33
-29 34 -29 9 0 106 -101 154 -159 72 -87 228 -322 258 -389 14 -29 31 -56 39
-59 8 -3 14 -12 14 -20 0 -8 22 -58 49 -112 27 -54 46 -102 43 -107 -10 -13
-120 -64 -138 -64 -9 0 -43 -14 -75 -31 -69 -37 -83 -32 -99 35 -6 22 -14 48
-19 56 -5 9 -12 31 -16 50 -9 44 -48 122 -69 139 -9 8 -16 21 -16 31 0 9 -13
36 -30 58 -16 23 -30 44 -30 47 0 25 -248 289 -350 371 -19 16 -36 32 -38 37
-2 4 -9 7 -16 7 -7 0 -23 11 -36 24 -12 14 -35 28 -51 31 -16 4 -72 28 -124
55 -96 49 -194 85 -251 93 -17 3 -47 12 -65 20 -43 20 -63 25 -123 33 -26 3
-62 12 -80 19 -17 7 -71 20 -121 29 -120 21 -133 24 -145 31 -6 4 -63 8 -126
10 -65 1 -120 7 -126 13 -11 11 13 54 65 114 13 15 32 39 43 53 10 15 39 55
64 88 75 101 209 316 230 367 8 19 30 58 48 85 18 28 78 142 133 255 55 113
104 213 110 223 12 23 68 162 84 212 21 65 41 169 53 274 6 60 7 360 2 526 -4
106 6 144 38 146 46 2 88 18 187 73 45 24 60 17 62 -29z"/>
<path d="M5774 2749 c-23 -4 -61 -13 -85 -20 -24 -7 -48 -13 -54 -15 -158 -38
-504 -207 -570 -278 -5 -6 -30 -27 -55 -47 -45 -36 -111 -100 -140 -136 -109
-132 -267 -359 -281 -401 -6 -20 -25 -55 -40 -76 -16 -22 -29 -46 -29 -53 0
-7 -4 -13 -10 -13 -5 0 -10 -8 -10 -17 0 -23 -101 -205 -117 -210 -22 -7 -147
145 -187 227 -12 25 -29 54 -38 65 -9 11 -67 83 -128 160 -138 174 -272 319
-364 394 -39 32 -89 75 -110 95 -22 20 -47 36 -56 36 -10 0 -35 13 -56 28 -54
39 -125 79 -340 190 -70 36 -168 62 -234 62 -36 0 -52 -6 -75 -27 -92 -84
-116 -155 -111 -326 l3 -118 39 -42 c117 -126 142 -145 201 -157 32 -7 67 -17
78 -23 11 -6 25 -12 32 -13 34 -6 253 -123 283 -152 19 -19 54 -45 78 -59 23
-14 42 -28 42 -32 0 -4 30 -39 66 -77 36 -38 113 -132 170 -209 58 -77 114
-151 125 -165 27 -35 157 -237 225 -350 31 -52 64 -103 72 -112 8 -10 12 -18
9 -18 -11 0 129 -202 170 -246 53 -57 79 -72 116 -68 43 5 127 94 187 200 24
44 48 80 52 82 5 2 8 10 8 19 0 8 7 27 15 41 8 15 36 72 63 127 125 253 229
442 253 459 10 7 33 40 50 74 34 69 141 183 259 274 41 32 80 62 85 67 25 19
232 131 243 131 6 0 12 4 12 8 0 5 6 9 13 10 6 0 31 8 54 16 23 9 83 25 132
35 103 23 141 40 186 85 72 72 95 130 97 244 2 175 -36 264 -136 318 -33 18
-130 25 -192 13z m-2898 -134 c30 -14 59 -25 65 -25 6 0 23 -8 37 -19 15 -10
45 -24 67 -31 22 -7 45 -16 50 -20 6 -4 48 -27 95 -52 80 -42 139 -81 335
-222 78 -56 253 -220 328 -307 49 -58 109 -142 186 -264 35 -55 80 -125 100
-155 20 -30 36 -57 36 -60 0 -3 16 -30 36 -60 19 -30 57 -95 84 -145 61 -114
87 -155 101 -155 6 0 19 26 29 58 10 31 22 67 26 80 5 13 9 30 9 38 0 9 9 29
21 45 11 16 22 40 24 52 2 12 17 47 34 77 35 62 46 85 92 188 18 39 36 72 41
72 4 0 8 6 8 13 0 7 54 96 120 196 136 207 261 344 387 425 116 74 362 194
413 199 25 3 75 17 111 31 70 26 200 56 246 56 l28 0 0 -184 c0 -101 -2 -187
-5 -189 -3 -3 -55 -8 -115 -11 -61 -3 -119 -7 -130 -10 -51 -11 -185 -59 -230
-83 -81 -42 -138 -74 -167 -94 -14 -11 -31 -19 -37 -19 -6 0 -11 -4 -11 -8 0
-5 -34 -30 -75 -58 -41 -27 -77 -57 -81 -66 -3 -10 -11 -18 -18 -18 -37 0
-276 -318 -341 -455 -11 -22 -19 -43 -20 -46 0 -3 -7 -13 -16 -21 -25 -26
-213 -414 -267 -553 -33 -87 -38 -104 -41 -153 -1 -30 -27 -39 -52 -16 -11 10
-40 61 -65 113 -25 52 -54 107 -65 123 -11 15 -37 60 -57 98 -20 39 -46 88
-57 108 -11 21 -34 56 -50 78 -17 21 -42 62 -56 89 -14 28 -48 81 -75 119 -27
37 -70 98 -96 135 -58 81 -77 107 -97 131 -9 10 -29 35 -46 56 -16 20 -34 42
-40 48 -5 6 -28 33 -49 60 -64 80 -149 163 -183 180 -18 9 -33 20 -33 25 0 5
-26 24 -57 41 -32 18 -60 36 -63 40 -19 26 -290 132 -366 143 -66 10 -104 19
-109 27 -7 12 -20 282 -16 358 1 28 10 28 77 -3z"/>
</g>
</svg>
