<svg version="1.1" id="Layer_1" xmlns="http://www.w3.org/2000/svg" xmlns:xlink="http://www.w3.org/1999/xlink" x="0px" y="0px"
	 width="100%" viewBox="0 0 512 512" enable-background="new 0 0 512 512" xml:space="preserve">
<path fill="#F4F4F5" opacity="1.000000" stroke="none" 
	d="
M234.000000,1.000000 
	C251.687561,1.000000 269.375122,1.000000 287.830963,1.208009 
	C294.772522,3.376935 301.286713,3.483821 307.554749,4.842162 
	C333.963440,10.565139 359.183868,19.385294 382.842438,32.745380 
	C411.725128,49.055534 436.266510,70.249268 457.186829,95.872559 
	C480.340729,124.231560 496.323792,156.155869 505.571899,191.530731 
	C509.305695,205.812866 511.613861,220.324051 513.000000,235.000000 
	C513.000000,249.687561 513.000000,264.375122 512.958374,279.929932 
	C511.747040,291.834442 510.315674,302.841949 507.811462,313.660278 
	C500.119293,346.891205 486.748444,377.573639 466.974792,405.490295 
	C453.905487,423.941711 438.470642,440.160126 421.285156,454.653534 
	C401.618774,471.239197 379.708038,484.402557 355.868988,494.148468 
	C338.941437,501.068817 321.575806,506.576782 303.445221,509.614014 
	C297.955292,510.533691 292.154938,510.334717 287.000000,513.000000 
	C267.312439,513.000000 247.624878,513.000000 227.199188,512.752197 
	C225.350632,511.646515 224.062012,511.533783 222.704376,511.406891 
	C210.288254,510.246490 198.144577,507.546143 186.226807,504.051239 
	C167.548386,498.573669 149.367142,491.736847 132.520844,481.803650 
	C129.099655,479.786407 125.880356,479.618408 122.112190,480.631439 
	C90.699409,489.076385 59.258301,497.416626 27.803520,505.704163 
	C19.485476,507.895752 11.274730,502.898956 8.589938,494.897614 
	C6.608720,488.993134 8.757577,483.722931 10.175695,478.352814 
	C17.764044,449.617157 25.442415,420.904724 33.260166,392.230774 
	C34.387096,388.097412 34.143181,384.571869 32.003883,380.855682 
	C28.446712,374.676392 25.211031,368.340271 22.369198,361.757751 
	C14.242631,342.934357 8.053913,323.588287 4.431163,303.375519 
	C3.451415,297.909149 3.849302,292.089935 1.000000,287.000000 
	C1.000000,267.312439 1.000000,247.624878 1.212909,227.169388 
	C3.377635,219.883942 3.508640,213.034943 4.916611,206.447708 
	C14.738527,160.495575 34.694748,119.500854 66.277466,84.570854 
	C82.044647,67.132591 99.825317,51.903042 119.895332,39.375557 
	C140.217392,26.690752 161.769333,17.039682 184.736649,10.272059 
	C200.878769,5.515574 217.335449,2.794488 234.000000,1.000000 
M76.894470,124.311989 
	C64.748535,140.487946 54.821377,158.009827 47.828922,176.911301 
	C36.983063,206.229034 31.060337,236.412338 33.190556,268.025360 
	C34.550404,288.205872 38.144703,307.779510 44.333649,326.951721 
	C49.719402,343.635742 57.639416,359.143707 66.220833,374.364410 
	C68.402390,378.233826 70.061676,382.233765 68.724319,387.159241 
	C62.292248,410.848694 56.146862,434.615997 49.915844,458.359894 
	C49.384205,460.385773 47.939457,462.590729 49.799171,464.468018 
	C51.560612,466.246033 53.556835,464.629242 55.395267,464.134888 
	C77.984055,458.061127 100.548470,451.895721 123.160339,445.909424 
	C129.085205,444.340851 134.775772,444.939270 140.423508,447.990295 
	C148.008377,452.087769 155.417221,456.483337 163.253494,460.187195 
	C192.214111,473.875580 222.835571,480.179871 254.590988,481.533447 
	C267.209869,482.071320 279.806366,480.431396 292.206970,478.341095 
	C316.587830,474.231262 339.749329,466.411865 361.662292,454.676727 
	C395.955109,436.311768 423.981995,411.040985 444.843048,378.410187 
	C472.359863,335.368500 484.357544,288.204437 479.763672,236.960373 
	C477.546814,212.231354 471.536896,188.580551 461.469696,166.025604 
	C443.841858,126.531471 416.901062,94.626770 380.927521,70.650940 
	C347.940216,48.665382 311.371216,36.321293 271.882507,33.576038 
	C248.439499,31.946278 225.098267,34.036869 202.221970,39.997921 
	C175.264496,47.022430 150.330536,58.363506 127.595695,74.518341 
	C108.233559,88.276604 91.496368,104.687462 76.894470,124.311989 
z"/>
<path fill="#F4F4F5" opacity="1.000000" stroke="none" 
	d="
M117.624100,202.075531 
	C118.705605,174.239319 127.145935,150.018066 148.264633,131.531769 
	C157.803452,123.181938 168.484375,116.794968 181.928009,117.651436 
	C190.475952,118.195999 198.179810,121.046059 204.364792,127.142204 
	C214.215988,136.851868 223.990005,146.641373 233.696274,156.495972 
	C239.145462,162.028412 241.570435,168.772446 242.515594,176.554138 
	C244.559814,193.384308 236.702362,204.511734 223.646042,213.648239 
	C214.023758,220.381668 213.705856,217.302505 217.271484,230.724289 
	C222.161804,249.132477 230.672867,265.539276 245.376236,277.932220 
	C258.447205,288.949219 274.002777,295.139923 290.673859,298.593689 
	C293.349548,299.148010 294.848541,297.907959 296.450226,295.857391 
	C301.425049,289.488434 305.302277,282.334106 312.171722,277.362335 
	C325.022156,268.061798 346.618530,269.373535 357.326111,280.039337 
	C367.598511,290.271667 377.920563,300.455963 388.074615,310.804779 
	C397.507202,320.418243 399.002167,339.945190 391.750275,352.406830 
	C378.054382,375.941956 357.361542,389.263885 330.992035,394.288086 
	C319.709991,396.437653 308.403564,396.782501 296.855133,395.698853 
	C285.547241,394.637787 274.515045,392.807220 263.699371,389.534790 
	C240.866104,382.626221 220.177048,371.551544 201.120117,357.267700 
	C181.120621,342.277344 163.984375,324.487091 150.032578,303.833923 
	C133.960709,280.042358 122.818077,254.085800 118.774704,225.440201 
	C117.707748,217.881287 117.216698,210.228714 117.624100,202.075531 
M362.728973,334.949219 
	C363.182526,333.727753 362.917084,332.508148 362.091522,331.675995 
	C353.533234,323.049286 344.998627,314.395721 336.264587,305.948975 
	C333.978546,303.738098 331.441772,304.267944 329.509705,307.050293 
	C325.724884,312.500763 321.269531,317.575470 318.143188,323.372742 
	C313.194855,332.548492 305.481445,334.488495 296.245728,333.263855 
	C275.628754,330.530182 256.224884,324.153900 238.204147,313.644073 
	C218.920639,302.397766 204.880569,286.336304 195.263031,266.428101 
	C187.942703,251.275085 183.027069,235.297211 180.870697,218.526566 
	C179.688873,209.335327 180.930145,201.458420 189.976227,196.276550 
	C195.429123,193.152985 200.351913,189.095642 205.470596,185.399307 
	C210.600296,181.695007 210.799072,180.141357 206.406235,175.662994 
	C199.291519,168.409729 191.951263,161.375336 184.921265,154.042374 
	C181.780624,150.766388 178.839005,150.442154 175.334991,153.132248 
	C173.889633,154.241867 172.251129,155.112808 170.869446,156.290543 
	C153.046570,171.482681 149.435181,191.917862 150.770157,213.622284 
	C151.722458,229.104950 156.494324,243.772324 162.935989,257.995514 
	C171.038193,275.885193 181.649963,292.014740 194.815125,306.444122 
	C212.958939,326.330231 234.221207,342.012543 259.141296,352.487183 
	C280.445831,361.442139 302.295654,366.576202 325.519562,361.564514 
	C341.515106,358.112701 354.576385,350.483093 362.728973,334.949219 
z"/>
</svg>